<?xml version="1.0" encoding="utf-8"?>
<!-- Generator: Adobe Illustrator 27.5.0, SVG Export Plug-In . SVG Version: 6.00 Build 0)  -->
<svg version="1.1" xmlns="http://www.w3.org/2000/svg" xmlns:xlink="http://www.w3.org/1999/xlink" x="0px" y="0px"
	 viewBox="0 0 500 500" style="enable-background:new 0 0 500 500;" xml:space="preserve">
<g id="Background_Complete">
	<g>
		<g>
			<g>
				
					<rect x="379.344" y="397.238" transform="matrix(0.1351 -0.9908 0.9908 0.1351 -83.2989 786.408)" style="fill:#EBEBEB;" width="58.88" height="87.355"/>
			</g>
		</g>
		<g>
			<g>
				<g>
					<g>
						<path style="fill:#E0E0E0;" d="M456.218,418.383c0.015,0.023-0.3,0.252-0.912,0.667c-0.68,0.45-1.577,1.042-2.698,1.783
							c-2.435,1.566-5.835,3.754-10.009,6.44c-8.561,5.417-20.279,12.832-33.258,21.045l-0.274,0.173l-0.224-0.235
							c-0.171-0.179-0.357-0.374-0.542-0.569c-10.692-11.28-20.367-21.487-27.441-28.951c-3.439-3.684-6.243-6.686-8.25-8.836
							c-0.92-1.01-1.656-1.818-2.214-2.43c-0.5-0.562-0.753-0.866-0.733-0.885c0.02-0.019,0.311,0.248,0.848,0.774
							c0.585,0.586,1.357,1.36,2.322,2.327c2.052,2.107,4.917,5.051,8.432,8.662c7.117,7.422,16.852,17.573,27.609,28.79
							c0.186,0.195,0.371,0.389,0.542,0.569l-0.498-0.062c13.028-8.135,24.791-15.48,33.384-20.845
							c4.23-2.597,7.675-4.712,10.142-6.227c1.153-0.689,2.076-1.24,2.776-1.658C455.862,418.544,456.204,418.36,456.218,418.383z"
							/>
					</g>
				</g>
			</g>
		</g>
		<g>
			<g>
				<g>
					<path style="fill:#E0E0E0;" d="M361.712,464.927c-0.147-0.163,7.452-7.273,16.97-15.879
						c9.522-8.609,17.357-15.454,17.504-15.292c0.147,0.162-7.451,7.271-16.972,15.88
						C369.696,458.242,361.859,465.089,361.712,464.927z"/>
				</g>
			</g>
		</g>
		<g>
			<g>
				<g>
					<path style="fill:#E0E0E0;" d="M425.057,436.948c0.189-0.11,5.539,8.705,11.947,19.687
						c6.41,10.986,11.452,19.979,11.263,20.089c-0.189,0.11-5.538-8.703-11.948-19.689
						C429.91,446.052,424.868,437.058,425.057,436.948z"/>
				</g>
			</g>
		</g>
	</g>
	<g>
		<g>
			<g>
				<g>
					<g>
						<g>
							<g>
								<g>
									<g>
										<g>
											<g>
												<path style="fill:#EBEBEB;" d="M322.325,114.267l-44.175-11.834c-3.052-0.818-4.864-3.955-4.047-7.008l16.38-61.143
													c0.818-3.053,3.955-4.865,7.008-4.047l28.016,7.505l15.699,28.162l-11.873,44.319
													C328.515,113.273,325.378,115.085,322.325,114.267z"/>
											</g>
										</g>
									</g>
								</g>
							</g>
						</g>
					</g>
				</g>
			</g>
			<g>
				<g>
					<g>
						<g>
							<g>
								<g>
									<g>
										<g>
											<g>
												<path style="fill:#E0E0E0;" d="M325.507,37.74l-4.61,17.208c-0.761,2.839,0.924,5.757,3.763,6.518l16.546,4.435
													L325.507,37.74z"/>
											</g>
										</g>
									</g>
								</g>
							</g>
						</g>
					</g>
				</g>
			</g>
		</g>
		<g>
			<g>
				<g>
					<g>
						<g>
							<g>
								<g>
									<g>
										<path style="fill:#FFFFFF;" d="M317.381,53.254c-0.059,0.221-4.683-0.825-10.326-2.337
											c-5.645-1.512-10.171-2.917-10.112-3.138c0.059-0.221,4.682,0.825,10.326,2.337
											C312.913,51.628,317.44,53.033,317.381,53.254z"/>
									</g>
								</g>
							</g>
						</g>
					</g>
				</g>
			</g>
		</g>
		<g>
			<g>
				<g>
					<g>
						<g>
							<g>
								<g>
									<g>
										<path style="fill:#FFFFFF;" d="M327.973,66.52c-0.059,0.221-7.637-1.617-16.924-4.105
											c-9.29-2.489-16.771-4.685-16.712-4.906c0.059-0.221,7.636,1.616,16.926,4.105
											C320.55,64.102,328.033,66.298,327.973,66.52z"/>
									</g>
								</g>
							</g>
						</g>
					</g>
				</g>
			</g>
		</g>
		<g>
			<g>
				<g>
					<g>
						<g>
							<g>
								<g>
									<g>
										<path style="fill:#FFFFFF;" d="M328.826,75.455c-0.059,0.221-8.316-1.799-18.439-4.51
											c-10.127-2.713-18.285-5.09-18.226-5.312c0.059-0.221,8.314,1.798,18.441,4.511
											C320.725,72.856,328.885,75.234,328.826,75.455z"/>
									</g>
								</g>
							</g>
						</g>
					</g>
				</g>
			</g>
		</g>
		<g>
			<g>
				<g>
					<g>
						<g>
							<g>
								<g>
									<g>
										<path style="fill:#FFFFFF;" d="M326.772,83.121c-0.059,0.222-8.316-1.798-18.439-4.51
											c-10.127-2.713-18.285-5.091-18.226-5.312c0.059-0.221,8.314,1.798,18.441,4.511
											C318.671,80.521,326.832,82.899,326.772,83.121z"/>
									</g>
								</g>
							</g>
						</g>
					</g>
				</g>
			</g>
		</g>
		<g>
			<g>
				<g>
					<g>
						<g>
							<g>
								<g>
									<g>
										<path style="fill:#FFFFFF;" d="M324.719,90.786c-0.059,0.221-8.316-1.799-18.439-4.51
											c-10.127-2.713-18.286-5.091-18.226-5.312c0.059-0.221,8.314,1.798,18.441,4.511
											C316.618,88.187,324.778,90.565,324.719,90.786z"/>
									</g>
								</g>
							</g>
						</g>
					</g>
				</g>
			</g>
		</g>
		<g>
			<g>
				<g>
					<g>
						<g>
							<g>
								<g>
									<g>
										<path style="fill:#FFFFFF;" d="M322.666,98.451c-0.059,0.221-8.316-1.799-18.439-4.51
											C294.1,91.228,285.941,88.85,286,88.629c0.059-0.221,8.314,1.798,18.441,4.511
											C314.564,95.852,322.725,98.23,322.666,98.451z"/>
									</g>
								</g>
							</g>
						</g>
					</g>
				</g>
			</g>
		</g>
	</g>
	<g>
		<g>
			<g>
				<g>
					<g>
						<g>
							<g>
								<g>
									<g>
										<g>
											<g>
												<path style="fill:#EBEBEB;" d="M98.099,453.684l-42.082,17.905c-2.908,1.237-6.268-0.117-7.506-3.025l-24.782-58.246
													c-1.237-2.908,0.117-6.269,3.025-7.506l26.688-11.355l29.719,12.503l17.963,42.219
													C102.361,449.086,101.007,452.447,98.099,453.684z"/>
											</g>
										</g>
									</g>
								</g>
							</g>
						</g>
					</g>
				</g>
			</g>
			<g>
				<g>
					<g>
						<g>
							<g>
								<g>
									<g>
										<g>
											<g>
												<path style="fill:#E0E0E0;" d="M53.442,391.457l6.975,16.393c1.151,2.704,4.276,3.964,6.98,2.814l15.763-6.704
													L53.442,391.457z"/>
											</g>
										</g>
									</g>
								</g>
							</g>
						</g>
					</g>
				</g>
			</g>
		</g>
		<g>
			<g>
				<g>
					<g>
						<g>
							<g>
								<g>
									<g>
										<path style="fill:#FFFFFF;" d="M56.604,408.682c0.09,0.211-4.197,2.236-9.572,4.523c-5.377,2.288-9.807,3.971-9.897,3.761
											c-0.09-0.211,4.195-2.236,9.572-4.524C52.083,410.155,56.514,408.471,56.604,408.682z"/>
									</g>
								</g>
							</g>
						</g>
					</g>
				</g>
			</g>
		</g>
		<g>
			<g>
				<g>
					<g>
						<g>
							<g>
								<g>
									<g>
										<path style="fill:#FFFFFF;" d="M73.121,412.601c0.09,0.211-7.011,3.433-15.858,7.197
											c-8.85,3.766-16.095,6.646-16.184,6.436c-0.089-0.211,7.01-3.433,15.86-7.198
											C65.785,415.271,73.031,412.39,73.121,412.601z"/>
									</g>
								</g>
							</g>
						</g>
					</g>
				</g>
			</g>
		</g>
		<g>
			<g>
				<g>
					<g>
						<g>
							<g>
								<g>
									<g>
										<path style="fill:#FFFFFF;" d="M79.3,419.112c0.09,0.211-7.657,3.709-17.301,7.812c-9.647,4.105-17.537,7.26-17.627,7.049
											c-0.089-0.211,7.656-3.708,17.303-7.812C71.318,422.058,79.21,418.902,79.3,419.112z"/>
									</g>
								</g>
							</g>
						</g>
					</g>
				</g>
			</g>
		</g>
		<g>
			<g>
				<g>
					<g>
						<g>
							<g>
								<g>
									<g>
										<path style="fill:#FFFFFF;" d="M82.406,426.414c0.09,0.211-7.657,3.709-17.301,7.812
											c-9.647,4.105-17.538,7.26-17.627,7.049c-0.09-0.21,7.656-3.708,17.303-7.812
											C74.425,429.36,82.317,426.204,82.406,426.414z"/>
									</g>
								</g>
							</g>
						</g>
					</g>
				</g>
			</g>
		</g>
		<g>
			<g>
				<g>
					<g>
						<g>
							<g>
								<g>
									<g>
										<path style="fill:#FFFFFF;" d="M85.513,433.716c0.09,0.211-7.657,3.709-17.301,7.812
											c-9.647,4.105-17.538,7.26-17.627,7.049c-0.09-0.211,7.656-3.708,17.303-7.812
											C77.532,436.662,85.424,433.506,85.513,433.716z"/>
									</g>
								</g>
							</g>
						</g>
					</g>
				</g>
			</g>
		</g>
		<g>
			<g>
				<g>
					<g>
						<g>
							<g>
								<g>
									<g>
										<path style="fill:#FFFFFF;" d="M88.62,441.019c0.09,0.211-7.657,3.709-17.301,7.812
											c-9.647,4.104-17.537,7.26-17.627,7.049c-0.09-0.211,7.656-3.708,17.303-7.812
											C80.638,443.964,88.531,440.808,88.62,441.019z"/>
									</g>
								</g>
							</g>
						</g>
					</g>
				</g>
			</g>
		</g>
	</g>
	<g>
		<path style="fill:#F5F5F5;" d="M474.505,199.765l-16.345-35.749c-2.653-5.802-9.271-8.53-15.174-6.452l-4.307,1.907
			l-31.199,14.264l-2.664-6.048c-3.933-8.602-0.135-18.799,8.467-22.732c8.601-3.933,18.799-0.134,22.718,8.437l4.298-1.929
			c-5.013-10.964-18.011-15.805-28.975-10.793c-10.964,5.013-15.805,18.011-10.806,28.945l2.736,6.213
			c-5.002,3.248-7.015,9.743-4.461,15.33l16.345,35.748c2.81,6.145,10.068,8.849,16.214,6.039l37.113-16.968
			C474.61,213.169,477.314,205.91,474.505,199.765z M436.123,206.556l-1.69-7.703c-2.158-0.276-4.13-1.619-5.101-3.744
			c-1.494-3.268-0.056-7.129,3.213-8.624c3.268-1.494,7.13-0.056,8.624,3.212c0.936,2.048,0.721,4.327-0.373,6.112
			c1.929,2.404,5.034,6.309,5.034,6.309L436.123,206.556z"/>
	</g>
	<g>
		<g>
			<path style="fill:#EBEBEB;" d="M168.46,51.997L47.764,51.38l0.052-10.151c0.026-5.103,4.184-9.219,9.287-9.193l102.31,0.523
				c5.051,0.026,9.124,4.141,9.098,9.192L168.46,51.997z"/>
		</g>
		<g>
			<g>
				<path style="fill:#E0E0E0;" d="M124.475,67.437c-6.843-7.127-13.71-6.924-13.71-6.924s-17.372-2.02-23.256,15.718
					c-5.885,17.738,10.13,20.717,10.13,20.717s-0.154,5.112,4.094,5.326c0,0,2.542,0.341,3.292-1.87c0,0,0.892,2.172,3.518,1.922
					c2.627-0.25,3.457-2.051,3.457-2.051s1.219,2.218,4.01,2.111c2.79-0.107,2.973-3.799,3.063-5.275c0,0,10.999-0.764,11.46-10.69
					C130.531,86.422,132.391,75.683,124.475,67.437z M99.305,92.252c-3.797-0.019-6.86-3.039-6.841-6.745
					c0.019-3.706,3.113-6.694,6.91-6.675c3.797,0.019,6.86,3.039,6.841,6.745C106.196,89.283,103.103,92.271,99.305,92.252z
					 M110.271,95.91l-3.557-0.018c-0.551-0.003-0.905-0.587-0.649-1.076c0.502-0.957,1.236-2.357,1.754-3.333
					c0.261-0.493,0.964-0.498,1.235-0.01l1.864,3.343C111.192,95.307,110.834,95.912,110.271,95.91z M117.297,92.344
					c-3.797-0.019-6.86-3.039-6.841-6.745c0.019-3.706,3.113-6.694,6.91-6.675c3.797,0.019,6.86,3.039,6.841,6.745
					C124.188,89.375,121.095,92.363,117.297,92.344z"/>
			</g>
			<g>
				<path style="fill:#E0E0E0;" d="M132.605,119.073c0.012-2.356-1.888-4.275-4.244-4.288c-1.906-0.01-3.525,1.232-4.081,2.953
					l-31.456-13.034c0.259-0.547,0.41-1.156,0.413-1.802c0.012-2.356-1.888-4.276-4.244-4.288c-2.356-0.012-4.275,1.888-4.288,4.244
					c-0.004,0.703,0.166,1.365,0.464,1.951c-1.578,0.619-2.7,2.149-2.709,3.947c-0.012,2.356,1.888,4.276,4.244,4.288
					c1.663,0.008,3.106-0.938,3.816-2.324l0,0l31.517,12.907c-0.133,0.409-0.208,0.845-0.21,1.299
					c-0.012,2.356,1.888,4.276,4.244,4.288c2.356,0.012,4.275-1.888,4.288-4.244c0.004-0.703-0.166-1.365-0.464-1.951
					C131.474,122.401,132.596,120.871,132.605,119.073z"/>
			</g>
			<g>
				<path style="fill:#E0E0E0;" d="M128.895,98.707c-1.745-1.583-4.443-1.451-6.026,0.294c-1.28,1.411-1.438,3.446-0.528,5.01
					L91.63,118.713c-0.234-0.559-0.586-1.077-1.065-1.511c-1.745-1.583-4.443-1.451-6.026,0.294
					c-1.583,1.745-1.451,4.443,0.294,6.026c0.521,0.472,1.127,0.788,1.762,0.958c-0.593,1.588-0.204,3.445,1.128,4.653
					c1.745,1.583,4.443,1.451,6.026-0.294c1.117-1.232,1.376-2.938,0.82-4.392h0.001l30.658-14.832
					c0.216,0.372,0.49,0.719,0.826,1.023c1.745,1.583,4.443,1.451,6.026-0.294c1.583-1.745,1.451-4.443-0.294-6.026
					c-0.521-0.472-1.127-0.788-1.762-0.958C130.616,101.772,130.228,99.915,128.895,98.707z"/>
			</g>
		</g>
		<g>
			<path style="fill:#E0E0E0;" d="M159.162,141.482c-0.017,0-0.032,0-0.048,0l-102.918-0.526c-5.177-0.026-9.367-4.259-9.341-9.437
				l0.464-90.645c0.013-2.508,1.001-4.86,2.784-6.625c1.771-1.752,4.114-2.716,6.603-2.716c0.017,0,0.033,0,0.05,0l102.918,0.526
				c2.508,0.013,4.861,1.001,6.625,2.784c1.764,1.782,2.729,4.145,2.716,6.652l-0.463,90.644
				C168.523,137.301,164.316,141.482,159.162,141.482z M159.119,140.482c0.015,0,0.029,0,0.044,0c4.605,0,8.364-3.735,8.388-8.346
				l0.463-90.644c0.011-2.241-0.851-4.352-2.427-5.944c-1.576-1.593-3.678-2.476-5.919-2.487L56.75,32.534c-0.015,0-0.03,0-0.045,0
				c-2.224,0-4.317,0.86-5.899,2.426c-1.593,1.577-2.476,3.679-2.487,5.919l-0.464,90.645c-0.023,4.626,3.72,8.408,8.346,8.432
				L159.119,140.482z"/>
		</g>
		<g>
			<path style="fill:#FFFFFF;" d="M62.955,41.642c-0.01,1.874-1.536,3.384-3.41,3.375c-1.873-0.009-3.384-1.536-3.375-3.41
				c0.01-1.873,1.536-3.384,3.41-3.375C61.454,38.242,62.964,39.768,62.955,41.642z"/>
		</g>
		<g>
			<path style="fill:#FFFFFF;" d="M71.999,41.996c-0.01,1.873-1.536,3.384-3.41,3.375c-1.873-0.01-3.384-1.536-3.375-3.41
				c0.01-1.874,1.536-3.384,3.41-3.375C70.498,38.596,72.009,40.123,71.999,41.996z"/>
		</g>
		<g>
			<path style="fill:#FFFFFF;" d="M81.043,42.351c-0.01,1.873-1.536,3.384-3.41,3.375c-1.873-0.01-3.384-1.536-3.375-3.41
				c0.01-1.873,1.536-3.384,3.409-3.375C79.542,38.951,81.053,40.478,81.043,42.351z"/>
		</g>
	</g>
	<g>
		<g>
			<g>
				<g>
					<path style="fill:#F5F5F5;" d="M477.467,352.107c1.389,9.56-5.252,18.438-14.833,19.83
						c-9.582,1.392-18.475-5.228-19.864-14.788c-1.389-9.559,5.252-18.437,14.833-19.83
						C467.184,335.928,476.078,342.548,477.467,352.107z"/>
				</g>
			</g>
			<g>
				<g>
					<path style="fill:#EBEBEB;" d="M473.339,352.708c1.059,7.284-4.002,14.05-11.304,15.111
						c-7.301,1.061-14.079-3.984-15.138-11.269c-1.058-7.285,4.003-14.051,11.304-15.112
						C465.503,340.378,472.28,345.423,473.339,352.708z"/>
				</g>
			</g>
			<g>
				<g>
					<g>
						<path style="fill:#E0E0E0;" d="M473.276,352.294c-0.08,0.015-0.22-0.557-0.58-1.539c-0.364-0.975-0.976-2.372-2.114-3.83
							c-0.568-0.726-1.263-1.463-2.099-2.148c-0.841-0.677-1.814-1.31-2.919-1.805c-0.551-0.249-1.132-0.472-1.741-0.644
							c-0.608-0.175-1.239-0.32-1.891-0.402c-0.651-0.084-1.319-0.134-1.998-0.117c-0.678,0.016-1.365,0.082-2.052,0.199
							c-0.686,0.127-1.354,0.302-1.996,0.52c-0.643,0.217-1.254,0.494-1.836,0.797c-0.585,0.302-1.127,0.655-1.638,1.029
							c-0.513,0.371-0.981,0.78-1.413,1.204c-0.868,0.845-1.563,1.775-2.119,2.699c-0.549,0.931-0.948,1.862-1.232,2.74
							c-0.566,1.76-0.659,3.283-0.665,4.323c0,1.045,0.065,1.631-0.015,1.644c-0.059,0.012-0.258-0.552-0.383-1.623
							c-0.117-1.064-0.138-2.661,0.368-4.547c0.254-0.939,0.636-1.945,1.189-2.955c0.559-1.004,1.276-2.018,2.189-2.945
							c0.454-0.464,0.949-0.912,1.495-1.32c0.543-0.41,1.124-0.798,1.75-1.13c0.625-0.333,1.283-0.637,1.976-0.875
							c0.692-0.239,1.413-0.43,2.152-0.565c0.741-0.127,1.482-0.196,2.214-0.209c0.733-0.015,1.454,0.044,2.156,0.142
							c0.702,0.096,1.381,0.26,2.032,0.459c0.652,0.195,1.272,0.445,1.858,0.725c1.175,0.555,2.198,1.261,3.069,2.011
							c0.865,0.758,1.572,1.571,2.134,2.366c1.125,1.597,1.655,3.103,1.912,4.143C473.328,351.686,473.335,352.284,473.276,352.294z
							"/>
					</g>
				</g>
			</g>
		</g>
		<g>
			<g>
				<g>
					<g>
						<path style="fill:#E0E0E0;" d="M462.76,362.297l0.368,2.298l-2.052,0.328l-0.358-2.236c-2.051,0.202-4.102-0.122-5.371-0.823
							l0.727-2.684c1.148,0.595,2.713,0.912,4.214,0.819l-0.549-3.426c-2.366-0.189-5.031-0.541-5.501-3.475
							c-0.348-2.175,0.933-4.294,4.115-5.183l-0.365-2.278l2.052-0.329l0.358,2.237c1.558-0.123,3.121,0.047,4.365,0.584
							l-0.621,2.688c-1.142-0.427-2.264-0.605-3.31-0.565l0.559,3.488c2.362,0.168,4.987,0.527,5.45,3.42
							C467.182,359.296,465.918,361.392,462.76,362.297z M459.257,353.557l-0.467-2.913c-1.048,0.42-1.383,1.084-1.275,1.762
							C457.63,353.123,458.308,353.415,459.257,353.557z M463.577,357.937c-0.115-0.719-0.772-1.013-1.704-1.18l0.453,2.832
							C463.316,359.199,463.682,358.594,463.577,357.937z"/>
					</g>
				</g>
			</g>
		</g>
	</g>
	<g>
		<g>
			<g>
				<g>
					<path style="fill:#F5F5F5;" d="M444.125,81.036c-8.889,12.736-26.442,15.839-39.208,6.932
						c-12.766-8.909-15.91-26.455-7.021-39.192c8.888-12.737,26.441-15.84,39.207-6.931C449.868,50.753,453.012,68.3,444.125,81.036
						z"/>
				</g>
			</g>
			<g>
				<g>
					<path style="fill:#EBEBEB;" d="M438.624,77.199c-6.773,9.705-20.15,12.07-29.879,5.281
						c-9.728-6.788-12.124-20.161-5.351-29.866c6.774-9.706,20.151-12.071,29.879-5.282
						C443.001,54.121,445.397,67.492,438.624,77.199z"/>
				</g>
			</g>
			<g>
				<g>
					<g>
						<path style="fill:#E0E0E0;" d="M439.005,76.644c-0.11-0.071,0.355-0.896,1.013-2.443c0.646-1.544,1.466-3.855,1.736-6.817
							c0.132-1.476,0.128-3.105-0.098-4.828c-0.242-1.718-0.685-3.531-1.438-5.327c-0.372-0.899-0.808-1.798-1.333-2.67
							c-0.52-0.874-1.101-1.738-1.775-2.552c-0.67-0.815-1.4-1.609-2.215-2.335c-0.813-0.727-1.69-1.406-2.625-2.025
							c-0.944-0.606-1.919-1.136-2.911-1.587c-0.994-0.453-2.014-0.8-3.03-1.086c-1.018-0.289-2.043-0.472-3.052-0.596
							c-1.009-0.129-2.008-0.164-2.981-0.143c-1.947,0.036-3.786,0.361-5.454,0.834c-1.667,0.487-3.16,1.141-4.458,1.857
							c-2.6,1.441-4.384,3.124-5.536,4.338c-1.15,1.226-1.718,1.984-1.826,1.912c-0.082-0.051,0.305-0.931,1.336-2.324
							c1.033-1.377,2.766-3.272,5.434-4.927c1.331-0.822,2.886-1.581,4.645-2.157c1.76-0.562,3.717-0.963,5.806-1.045
							c1.043-0.045,2.117-0.025,3.205,0.097c1.088,0.117,2.196,0.301,3.296,0.601c1.1,0.297,2.204,0.664,3.279,1.147
							c1.075,0.481,2.129,1.05,3.145,1.704c1.009,0.667,1.953,1.401,2.827,2.191c0.875,0.789,1.657,1.652,2.372,2.538
							c0.718,0.885,1.333,1.825,1.878,2.773c0.551,0.946,1.002,1.922,1.381,2.894c0.767,1.944,1.19,3.896,1.386,5.734
							c0.18,1.84,0.115,3.571-0.101,5.121c-0.438,3.11-1.473,5.459-2.316,6.961C439.735,75.989,439.085,76.697,439.005,76.644z"/>
					</g>
				</g>
			</g>
		</g>
		<g>
			<g>
				<g>
					<g>
						<path style="fill:#E0E0E0;" d="M415.67,76.803l-2.096,3.1l-2.766-1.873l2.04-3.015c-2.626-2.02-4.675-4.655-5.392-6.874
							l3.805-2.347c0.691,1.96,2.177,4.054,4.039,5.597l3.126-4.622c-2.566-2.824-5.304-6.169-2.627-10.126
							c1.985-2.933,5.818-4.009,10.526-1.549l2.078-3.072l2.767,1.872l-2.041,3.017c1.963,1.57,3.608,3.489,4.475,5.487
							l-3.686,2.468c-0.869-1.757-1.989-3.201-3.26-4.304l-3.183,4.705c2.585,2.796,5.267,6.105,2.628,10.006
							C424.158,78.149,420.37,79.217,415.67,76.803z M421.178,62.702l2.657-3.929c-1.691-0.66-2.815-0.25-3.433,0.663
							C419.748,60.403,420.222,61.491,421.178,62.702z M421.426,72.59c0.655-0.969,0.208-2.037-0.7-3.258l-2.584,3.819
							C419.731,73.783,420.827,73.476,421.426,72.59z"/>
					</g>
				</g>
			</g>
		</g>
	</g>
</g>
<g id="Background_Simple" style="display:none;">
	<g style="display:inline;">
		<path style="fill:#F5F5F5;" d="M329.581,29.004l-1.335,1.422c-11.253,11.99-15.278,29.121-9.924,44.51
			c0.688,1.978,1.519,3.907,2.494,5.768c7.016,13.393,21.238,22.786,36.463,24.081c8.954,0.761,18.529-0.996,26.565,2.943
			c10.458,5.127,14.25,17.721,17.005,28.954c2.755,11.234,6.582,23.827,17.063,28.908c6.564,3.182,14.469,2.573,21.421,0.232
			c18.406-6.197,31.484-23.868,35.176-42.736c3.692-18.868-0.994-38.568-9.694-55.67c-12.187-23.958-32.962-44.182-58.707-52.646
			C380.363,6.306,349.772,10.87,329.581,29.004z"/>
	</g>
	<g style="display:inline;">
		<path style="fill:#F5F5F5;" d="M163.108,38.862l1.335,1.422c11.253,11.99,15.278,29.121,9.924,44.51
			c-0.688,1.978-1.519,3.907-2.494,5.768c-7.016,13.393-21.238,22.786-36.463,24.081c-8.954,0.761-18.529-0.996-26.565,2.943
			c-10.458,5.127-14.25,17.721-17.005,28.954c-2.755,11.234-6.582,23.827-17.063,28.908c-6.564,3.182-14.469,2.573-21.421,0.232
			c-18.406-6.197-31.484-23.868-35.176-42.736c-3.692-18.868,0.994-38.568,9.694-55.67c12.187-23.958,32.963-44.183,58.707-52.646
			C112.326,16.164,142.917,20.728,163.108,38.862z"/>
	</g>
</g>
<g id="Floor">
	<g>
		<g>
			<path style="fill:#263238;" d="M482.412,483.705c0,0.144-104.063,0.26-232.401,0.26c-128.383,0-232.423-0.117-232.423-0.26
				s104.04-0.26,232.423-0.26C378.349,483.444,482.412,483.561,482.412,483.705z"/>
		</g>
	</g>
</g>
<g id="Coin_1">
	<g>
		<g>
			<g>
				<g>
					<g>
						<g>
							<g>
								<g>
									<g>
										<g>
											<g>
												<path style="fill:#FF725E;" d="M83.384,272.395c3.874,13.669-4.067,27.891-17.736,31.764
													c-13.67,3.874-27.891-4.067-31.764-17.736c-3.874-13.67,4.066-27.89,17.736-31.764
													C65.289,250.785,79.51,258.725,83.384,272.395z"/>
											</g>
										</g>
									</g>
								</g>
								<g style="opacity:0.1;">
									<g>
										<g>
											<path style="fill:#FFFFFF;" d="M51.62,254.659c-13.67,3.874-21.61,18.095-17.736,31.764c0,0,17.612-4.151,19.811-12.34
												C55.894,265.893,51.62,254.659,51.62,254.659z"/>
										</g>
									</g>
								</g>
								<g>
									<g>
										<g>
											<path style="fill:#FF725E;" d="M76.946,273.796c2.945,10.392-3.091,21.202-13.483,24.147
												c-10.392,2.945-21.202-3.091-24.147-13.483c-2.945-10.392,3.091-21.202,13.483-24.147
												C63.19,257.368,74.001,263.404,76.946,273.796z"/>
										</g>
									</g>
								</g>
								<g style="opacity:0.2;">
									<g>
										<g>
											<path d="M76.946,273.796c2.945,10.392-3.091,21.202-13.483,24.147c-10.392,2.945-21.202-3.091-24.147-13.483
												c-2.945-10.392,3.091-21.202,13.483-24.147C63.19,257.368,74.001,263.404,76.946,273.796z"/>
										</g>
									</g>
								</g>
								<g>
									<g>
										<g>
											<path style="fill:#FF725E;" d="M77.699,274.43c2.905,10.252-3.05,20.918-13.302,23.823
												c-10.253,2.906-20.918-3.05-23.823-13.302c-2.905-10.252,3.05-20.918,13.302-23.823
												C64.129,258.222,74.794,264.177,77.699,274.43z"/>
										</g>
									</g>
								</g>
								<g style="opacity:0.2;">
									<g>
										<g>
											<path style="fill:#FFFFFF;" d="M77.699,274.43c2.905,10.252-3.05,20.918-13.302,23.823
												c-10.253,2.906-20.918-3.05-23.823-13.302c-2.905-10.252,3.05-20.918,13.302-23.823
												C64.129,258.222,74.794,264.177,77.699,274.43z"/>
										</g>
									</g>
								</g>
							</g>
						</g>
					</g>
				</g>
				<g>
					<g>
						<g>
							<g>
								<g>
									<path style="fill:#FF725E;" d="M59.42,277.871l-1.346-4.749c0.007-0.003,0.015-0.004,0.023-0.007
										c0.852-0.138,1.769-0.16,2.711-0.057c0.809,0.166,1.394,0.411,1.394,0.411l0.021-0.165l0.248-1.918l0.057-0.441
										l-1.098-0.649l-0.355,0.299c-1.185-0.225-2.484-0.298-3.722-0.018l-0.74-2.612l-0.999-0.425l0.186,0.655l-1.116,0.316
										l0.754,2.659c-3.571,1.393-4.718,3.981-4.038,6.381c0.927,3.271,3.967,3.324,6.759,3.219l1.334,4.706
										c-1.835,0.342-3.793,0.16-5.213-0.454l-0.385,2.676c1.523,0.712,3.972,0.832,6.318,0.319l0.559,1.972l-0.914,0.276
										l1.095,0.363l1.929-0.547l-0.747-2.635c3.587-1.423,4.765-3.994,4.085-6.394C65.292,277.783,62.212,277.766,59.42,277.871z
										 M57.351,277.924c-1.478-0.013-2.637-0.244-2.957-1.374c-0.293-1.035,0.173-2.082,1.77-2.815L57.351,277.924z
										 M58.073,273.118L58.073,273.118L58.073,273.118C58.073,273.118,58.073,273.118,58.073,273.118z M61.407,284.883
										l-1.18-4.165c1.525,0,2.714,0.248,3.04,1.401C63.554,283.131,63.051,284.137,61.407,284.883z"/>
								</g>
							</g>
						</g>
					</g>
					<g style="opacity:0.3;">
						<g>
							<g>
								<g>
									<path d="M59.42,277.871l-1.346-4.749c0.007-0.003,0.015-0.004,0.023-0.007c0.852-0.138,1.769-0.16,2.711-0.057
										c0.809,0.166,1.394,0.411,1.394,0.411l0.021-0.165l0.248-1.918l0.057-0.441l-1.098-0.649l-0.355,0.299
										c-1.185-0.225-2.484-0.298-3.722-0.018l-0.74-2.612l-0.999-0.425l0.186,0.655l-1.116,0.316l0.754,2.659
										c-3.571,1.393-4.718,3.981-4.038,6.381c0.927,3.271,3.967,3.324,6.759,3.219l1.334,4.706
										c-1.835,0.342-3.793,0.16-5.213-0.454l-0.385,2.676c1.523,0.712,3.972,0.832,6.318,0.319l0.559,1.972l-0.914,0.276
										l1.095,0.363l1.929-0.547l-0.747-2.635c3.587-1.423,4.765-3.994,4.085-6.394C65.292,277.783,62.212,277.766,59.42,277.871z
										 M57.351,277.924c-1.478-0.013-2.637-0.244-2.957-1.374c-0.293-1.035,0.173-2.082,1.77-2.815L57.351,277.924z
										 M58.073,273.118L58.073,273.118L58.073,273.118C58.073,273.118,58.073,273.118,58.073,273.118z M61.407,284.883
										l-1.18-4.165c1.525,0,2.714,0.248,3.04,1.401C63.554,283.131,63.051,284.137,61.407,284.883z"/>
								</g>
							</g>
						</g>
					</g>
					<g>
						<g>
							<g>
								<path style="fill:#FF725E;" d="M61.153,287.029l0.747,2.636l-1.93,0.547l-0.74-2.612c-2.346,0.512-4.795,0.393-6.319-0.32
									l0.385-2.677c1.42,0.615,3.378,0.796,5.214,0.454l-1.334-4.707c-2.792,0.105-5.833,0.051-6.76-3.22
									c-0.68-2.401,0.468-4.988,4.039-6.382l-0.754-2.659l1.93-0.547l0.74,2.612c1.769-0.4,3.68-0.382,5.185,0.082l-0.292,2.65
									c-1.454-0.376-2.885-0.402-4.172-0.19l1.347,4.754c2.792-0.105,5.874-0.088,6.8,3.183
									C65.92,283.034,64.741,285.605,61.153,287.029z M56.369,277.504l-1.187-4.189c-1.597,0.732-2.063,1.78-1.77,2.815
									C53.732,277.259,54.891,277.49,56.369,277.504z M62.287,281.699c-0.327-1.153-1.516-1.401-3.041-1.401l1.18,4.165
									C62.071,283.718,62.574,282.711,62.287,281.699z"/>
							</g>
						</g>
					</g>
				</g>
			</g>
			<g>
				<g>
					<g>
						<g>
							<path style="fill:#FFFFFF;" d="M40.847,296.994c-0.005,0.005-0.063-0.05-0.17-0.159c-0.119-0.125-0.271-0.284-0.459-0.481
								c-0.201-0.208-0.44-0.468-0.696-0.791c-0.258-0.319-0.569-0.671-0.863-1.097c-0.152-0.21-0.311-0.43-0.476-0.658
								c-0.164-0.23-0.314-0.483-0.48-0.738c-0.341-0.505-0.648-1.078-0.983-1.675c-0.634-1.213-1.246-2.592-1.745-4.092
								c-0.484-1.506-0.803-2.981-1.008-4.334c-0.082-0.68-0.172-1.324-0.195-1.933c-0.016-0.304-0.044-0.597-0.048-0.879
								c-0.001-0.282-0.003-0.553-0.004-0.812c-0.014-0.517,0.029-0.984,0.049-1.395c0.016-0.411,0.055-0.762,0.095-1.049
								c0.036-0.27,0.064-0.489,0.087-0.66c0.022-0.151,0.037-0.229,0.043-0.228c0.007,0.001,0.005,0.081-0.005,0.233
								c-0.013,0.172-0.03,0.391-0.051,0.662c-0.028,0.287-0.057,0.638-0.062,1.047c-0.009,0.409-0.044,0.874-0.021,1.388
								c0.005,0.258,0.011,0.527,0.016,0.807c0.007,0.281,0.039,0.572,0.059,0.873c0.03,0.605,0.125,1.244,0.211,1.919
								c0.213,1.343,0.535,2.806,1.015,4.3c0.495,1.489,1.098,2.86,1.719,4.069c0.329,0.595,0.629,1.168,0.962,1.673
								c0.162,0.255,0.308,0.509,0.468,0.739c0.161,0.229,0.315,0.45,0.464,0.661c0.285,0.429,0.587,0.784,0.836,1.109
								c0.246,0.327,0.476,0.594,0.668,0.809c0.177,0.207,0.32,0.374,0.432,0.504C40.803,296.926,40.852,296.989,40.847,296.994z"/>
						</g>
					</g>
				</g>
			</g>
			<g>
				<g>
					<g>
						<g>
							<path style="fill:#FFFFFF;" d="M52.583,278.644c-0.007,0.018-0.309-0.073-0.7-0.388c-0.388-0.308-0.848-0.876-1.034-1.63
								c-0.184-0.755-0.039-1.472,0.163-1.924c0.201-0.46,0.427-0.681,0.441-0.668c0.027,0.019-0.155,0.265-0.315,0.717
								c-0.162,0.446-0.275,1.123-0.103,1.829c0.174,0.706,0.587,1.253,0.937,1.574C52.323,278.481,52.598,278.615,52.583,278.644z"
								/>
						</g>
					</g>
				</g>
			</g>
			<g>
				<g>
					<g>
						<g>
							<path style="fill:#FFFFFF;" d="M54.743,270.248c-0.051,0.015-0.19-0.32-0.312-0.748c-0.121-0.427-0.178-0.785-0.127-0.8
								c0.051-0.014,0.19,0.32,0.312,0.748S54.794,270.233,54.743,270.248z"/>
						</g>
					</g>
				</g>
			</g>
			<g>
				<g>
					<g>
						<g>
							<path style="fill:#FFFFFF;" d="M54.362,259.347c0.002,0.013-0.216,0.065-0.611,0.148c-0.198,0.039-0.44,0.089-0.716,0.165
								c-0.277,0.073-0.596,0.141-0.939,0.254c-0.346,0.102-0.723,0.217-1.119,0.367c-0.402,0.134-0.817,0.315-1.257,0.496
								c-0.869,0.388-1.802,0.866-2.733,1.449c-0.926,0.592-1.757,1.231-2.479,1.851c-0.352,0.32-0.693,0.618-0.986,0.924
								c-0.306,0.294-0.57,0.586-0.811,0.855c-0.249,0.262-0.447,0.521-0.631,0.74c-0.187,0.218-0.336,0.414-0.455,0.577
								c-0.244,0.322-0.384,0.497-0.395,0.49c-0.011-0.007,0.109-0.197,0.334-0.533c0.111-0.17,0.252-0.374,0.432-0.599
								c0.178-0.227,0.37-0.494,0.613-0.763c0.236-0.276,0.497-0.576,0.8-0.877c0.29-0.314,0.631-0.618,0.983-0.945
								c0.722-0.633,1.559-1.283,2.494-1.88c0.94-0.589,1.885-1.067,2.766-1.449c0.446-0.179,0.867-0.356,1.274-0.484
								c0.402-0.145,0.785-0.253,1.135-0.348c0.347-0.105,0.671-0.165,0.952-0.228c0.281-0.066,0.526-0.106,0.727-0.134
								C54.138,259.361,54.36,259.334,54.362,259.347z"/>
						</g>
					</g>
				</g>
			</g>
			<g>
				<g>
					<g>
						<g>
							<path style="fill:#FFFFFF;" d="M68.299,302.025c0.006,0.012-0.139,0.098-0.407,0.245c-0.267,0.149-0.665,0.343-1.168,0.56
								c-1.003,0.436-2.445,0.924-4.093,1.215c-1.649,0.287-3.172,0.318-4.263,0.249c-0.546-0.034-0.986-0.08-1.288-0.129
								c-0.302-0.047-0.468-0.078-0.466-0.092c0.002-0.013,0.171-0.006,0.474,0.018c0.303,0.027,0.743,0.052,1.286,0.068
								c1.085,0.034,2.591-0.018,4.224-0.303c1.632-0.288,3.065-0.75,4.075-1.152c0.505-0.2,0.91-0.373,1.186-0.501
								C68.137,302.077,68.293,302.013,68.299,302.025z"/>
						</g>
					</g>
				</g>
			</g>
		</g>
	</g>
</g>
<g id="GPS_Icon">
	<g>
		<g>
			<g>
				<g>
					<path style="fill:#FF725E;" d="M400.432,128.104c0-10.959-9.904-19.605-21.25-17.475c-7.136,1.339-12.823,7.167-14.073,14.32
						c-0.781,4.471,0.142,8.676,2.181,12.148h-0.01l0.051,0.067c0.683,1.15,1.538,1.973,2.402,3.181l10.335,13.69
						c1.286,1.704,3.845,1.704,5.131,0l10.163-13.464c0,0,1.897-2.262,2.585-3.425l0.037-0.049h-0.007
						C399.527,134.456,400.432,131.389,400.432,128.104z M382.633,135.854c-4.326,0-7.833-3.507-7.833-7.833
						c0-4.326,3.507-7.833,7.833-7.833c4.326,0,7.833,3.507,7.833,7.833C390.466,132.347,386.959,135.854,382.633,135.854z"/>
				</g>
			</g>
		</g>
	</g>
</g>
<g id="Person_Icon_2">
	<g>
		<g>
			<g>
				<g>
					<g>
						<g>
							<path style="fill:#FF725E;" d="M468.142,252.167c3.113-0.428,5.874-2.783,6.798-6.181c1.207-4.451-1.197-8.98-5.371-10.114
								c-4.172-1.134-8.534,1.555-9.742,6.006c-0.93,3.43,0.295,6.886,2.811,8.82c-12.111-1.353-14.96,11.442-14.96,11.442
								l27.499,7.473C475.177,269.615,479.218,256.99,468.142,252.167z"/>
						</g>
					</g>
				</g>
			</g>
		</g>
	</g>
</g>
<g id="Character">
	<g>
		<g>
			<g>
				<path style="fill:#263238;" d="M212.355,172.663c-3.505-10.636-6.967-21.353-8.589-32.434
					c-1.622-11.081-1.333-22.64,2.526-33.153c0.585-1.593,5.585-12.289,7.275-12.13c1.208,0.114-1.858,10.086-1.243,11.132
					c5.868,9.984,7.5,22.013,6.616,33.559C218.057,151.184,215.697,161.576,212.355,172.663"/>
			</g>
			<g>
				<path style="fill:#FFBF9D;" d="M275.423,234.477c0.051-7.91,0.116-14.154,0.176-14.154c0,0,27.129-2.852,28.796-29.752
					c0.804-12.99,0.285-39.873-0.468-64.201c-0.81-26.161-21.569-47.314-47.711-48.608l-2.597-0.129
					c-28.086,0.248-43.566,24.24-42.541,52.308l0.459,98.292l19.153,22.64C245.959,268.918,275.435,258.114,275.423,234.477
					L275.423,234.477z"/>
			</g>
			<g>
				<path style="fill:#FF9A6C;" d="M275.599,220.323c0,0-17.016,0.154-34.533-12.098c0,0,7.574,19.999,34.553,18.907
					L275.599,220.323z"/>
			</g>
			<g>
				<path style="fill:#263238;" d="M292.721,148.8c-0.029,2.034-1.774,3.686-3.899,3.695c-2.12,0.008-3.819-1.628-3.79-3.663
					c0.029-2.033,1.774-3.688,3.894-3.697C291.05,145.126,292.75,146.767,292.721,148.8z"/>
			</g>
			<g>
				<path style="fill:#263238;" d="M297.62,137.235c-0.501,0.477-3.307-1.822-7.444-2.016c-4.13-0.253-7.271,1.724-7.694,1.195
					c-0.209-0.234,0.321-1.116,1.69-2.013c1.349-0.893,3.614-1.716,6.191-1.577c2.576,0.142,4.696,1.198,5.894,2.23
					C297.48,136.094,297.867,137.021,297.62,137.235z"/>
			</g>
			<g>
				<path style="fill:#263238;" d="M255.908,149.986c-0.029,2.034-1.775,3.685-3.899,3.694c-2.12,0.01-3.819-1.627-3.791-3.662
					c0.03-2.033,1.775-3.688,3.895-3.697C254.239,146.312,255.937,147.953,255.908,149.986z"/>
			</g>
			<g>
				<path style="fill:#263238;" d="M259.04,136.786c-0.503,0.478-3.312-1.821-7.446-2.015c-4.128-0.253-7.27,1.724-7.694,1.196
					c-0.208-0.236,0.317-1.116,1.692-2.012c1.348-0.895,3.614-1.716,6.189-1.579c2.576,0.142,4.696,1.199,5.895,2.23
					C258.895,135.646,259.284,136.574,259.04,136.786z"/>
			</g>
			<g>
				<path style="fill:#263238;" d="M270.283,169.42c-0.008-0.236,2.585-0.553,6.778-0.879c1.062-0.056,2.072-0.216,2.285-0.929
					c0.287-0.751-0.099-1.911-0.549-3.166c-0.867-2.605-1.773-5.336-2.725-8.198c-3.771-11.667-6.444-21.238-5.973-21.386
					c0.472-0.147,3.91,9.188,7.68,20.855c0.904,2.876,1.769,5.617,2.591,8.24c0.339,1.22,0.96,2.616,0.342,4.173
					c-0.323,0.775-1.127,1.31-1.813,1.458c-0.688,0.173-1.282,0.155-1.806,0.16C272.889,169.766,270.287,169.656,270.283,169.42z"/>
			</g>
			<g>
				<path style="fill:#263238;" d="M262.978,132.64c-0.873,0.821-4.321-1.524-8.921-3.194c-4.566-1.765-8.704-2.265-8.824-3.457
					c-0.038-0.562,1.05-1.198,2.956-1.455c1.892-0.262,4.595-0.053,7.344,0.974c2.746,1.033,4.92,2.652,6.174,4.093
					C262.974,131.047,263.376,132.242,262.978,132.64z"/>
			</g>
			<g>
				<path style="fill:#263238;" d="M298.18,120.234c-0.676,1.041-3.952,0.501-7.738,0.97c-3.8,0.35-6.896,1.577-7.765,0.702
					c-0.387-0.429-0.011-1.431,1.268-2.504c1.258-1.067,3.467-2.099,6.074-2.382c2.607-0.28,4.974,0.258,6.419,1.035
					C297.903,118.831,298.472,119.731,298.18,120.234z"/>
			</g>
			<g>
				<path style="fill:#FFBF9D;" d="M212.29,149.98c-0.449-0.221-18.224-6.387-18.548,12.044
					c-0.324,18.432,18.247,14.955,18.289,14.427C212.071,175.924,212.29,149.98,212.29,149.98z"/>
			</g>
			<g>
				<path style="fill:#FF9A6C;" d="M206.523,169.37c-0.08-0.06-0.325,0.219-0.872,0.458c-0.533,0.233-1.446,0.384-2.401,0.007
					c-1.934-0.749-3.519-3.869-3.551-7.193c-0.017-1.678,0.363-3.269,0.98-4.581c0.587-1.339,1.476-2.265,2.459-2.422
					c0.979-0.208,1.663,0.39,1.879,0.913c0.239,0.52,0.114,0.885,0.212,0.919c0.05,0.048,0.401-0.302,0.266-1.066
					c-0.07-0.368-0.278-0.806-0.705-1.168c-0.436-0.368-1.083-0.562-1.767-0.5c-1.423,0.073-2.726,1.358-3.404,2.798
					c-0.757,1.446-1.223,3.233-1.204,5.118c0.053,3.716,1.893,7.226,4.544,8.043c1.291,0.361,2.379-0.012,2.945-0.436
					C206.482,169.814,206.586,169.404,206.523,169.37z"/>
			</g>
			<g>
				<path style="fill:#263238;" d="M292.269,95.706c2.998-1.62-5.87-11.359-13.173-14.75c-11.036-5.124-27.929-8.368-38.171-5.561
					c-12.331,3.38-22.604,9.41-28.877,20.551c-6.273,11.141-8.71,24.165-8.463,36.948c0.075,3.9,0.444,7.969,2.498,11.285
					c2.539,4.098,7.457,6.709,7.191,12.329c-0.097,2.054,0.471,4.133,1.866,5.644c3.341,3.618,7.496,0.284,9.423-3.08
					c4.115-7.184,4.643-15.8,5.072-24.069c0.304-5.877,0.595-11.88-1.012-17.541c-0.875-3.08-2.298-5.996-3.001-9.121
					c-0.703-3.124-0.577-6.661,1.387-9.191c0.32-0.412,0.845-0.93,1.51-1.502c5.26-4.53,12.581-5.835,19.104-3.463
					c10.348,3.763,28.027,9.403,32.688,5.921c6.705-5.009,8.327-8.3,8.327-8.3L292.269,95.706z"/>
			</g>
			<g>
				<path style="fill:#FF9A6C;" d="M271.493,178.119l-0.496-0.227c-3.545-1.601-7.19-2.98-10.906-4.127
					c-0.572-0.176-1.175-0.349-1.761-0.227c-1.034,0.216-1.669,1.264-1.998,2.268c-1.012,3.089-0.184,6.742,2.163,8.992
					c2.347,2.25,6.126,2.908,9.037,1.459C270.443,184.808,272.205,181.291,271.493,178.119z"/>
			</g>
			<g>
				<g>
					<path style="fill:#263238;" d="M271.493,178.119c0.017-0.004,0.062,0.15,0.132,0.45c0.066,0.301,0.12,0.754,0.117,1.343
						c-0.032,1.159-0.4,2.927-1.739,4.597c-0.674,0.813-1.577,1.603-2.735,2.102c-1.146,0.516-2.509,0.734-3.913,0.616
						c-1.401-0.132-2.849-0.612-4.115-1.491c-1.271-0.876-2.287-2.189-2.898-3.694c-0.614-1.508-0.805-3.133-0.617-4.654
						c0.1-0.762,0.271-1.495,0.571-2.186c0.301-0.678,0.745-1.339,1.435-1.701c0.703-0.381,1.507-0.235,2.121-0.047
						c0.619,0.2,1.221,0.394,1.805,0.582c1.157,0.389,2.227,0.775,3.197,1.144c1.94,0.739,3.481,1.408,4.535,1.894
						c0.527,0.243,0.932,0.439,1.204,0.579c0.272,0.14,0.411,0.221,0.403,0.238c-0.016,0.034-0.611-0.203-1.687-0.631
						c-1.076-0.427-2.633-1.042-4.582-1.734c-0.974-0.346-2.046-0.71-3.204-1.079c-0.581-0.179-1.18-0.363-1.796-0.552
						c-0.604-0.174-1.241-0.266-1.774,0.032c-0.537,0.283-0.933,0.852-1.201,1.475c-0.268,0.626-0.432,1.336-0.521,2.049
						c-0.172,1.436,0.013,2.973,0.592,4.395c0.577,1.42,1.526,2.65,2.709,3.473c1.182,0.829,2.546,1.293,3.867,1.431
						c1.324,0.123,2.611-0.066,3.696-0.535c1.095-0.451,1.962-1.18,2.623-1.941c1.314-1.563,1.728-3.249,1.82-4.372
						C271.609,178.759,271.438,178.128,271.493,178.119z"/>
				</g>
			</g>
			<g>
				<g>
					<path style="fill:#FF9A6C;" d="M252.038,160.828c-0.077,0.042-0.466-0.697-1.344-1.682c-0.866-0.982-2.293-2.18-4.165-2.885
						c-1.873-0.704-3.736-0.743-5.035-0.574c-1.309,0.163-2.089,0.463-2.119,0.381c-0.025-0.05,0.717-0.479,2.062-0.744
						c1.329-0.27,3.297-0.294,5.275,0.45c1.978,0.744,3.443,2.057,4.265,3.136C251.813,159.995,252.089,160.807,252.038,160.828z"/>
				</g>
			</g>
			<g>
				<g>
					<path style="fill:#FF9A6C;" d="M293.137,159.283c-0.099,0.134-1.968-1.764-5.026-2.523c-3.045-0.814-5.598-0.055-5.62-0.221
						c-0.018-0.056,0.583-0.329,1.631-0.5c1.043-0.174,2.54-0.187,4.119,0.217c1.577,0.41,2.881,1.145,3.71,1.801
						C292.785,158.713,293.18,159.243,293.137,159.283z"/>
				</g>
			</g>
		</g>
		<g>
			<g>
				<path style="fill:#455A64;" d="M304.801,121.92c-0.814,0.991-10.066-24.36-39.392-22.047
					c-21.368,1.685-37.445,17.904-44.877,27.464c-5.72,7.357-15.173,21.397-15.173,21.397s-12.922-7.652-5.819-26.852
					c2.409-6.511,16.179-28.833,34.232-38.636c24.144-13.111,43.127-11.924,56.293-3.201
					C302.144,88.049,313.342,111.525,304.801,121.92z"/>
			</g>
			<g>
				<path style="fill:#455A64;" d="M235.538,65.162c5.003-0.671,25.464-0.868,37.768,10.661l-53.078,30.783l-13.689,15.609
					c0,0-11.798-25.624,9.571-47.325C216.11,74.89,222.548,66.905,235.538,65.162z"/>
			</g>
			<g>
				<g>
					<path style="fill:#263238;" d="M277.303,74.359c-0.001,0.009-0.09,0.009-0.262,0.002c-0.202-0.012-0.452-0.027-0.761-0.046
						c-0.708-0.055-1.684-0.13-2.92-0.226c-1.266-0.114-2.823-0.125-4.625-0.214c-0.901-0.042-1.867,0.002-2.889-0.002
						c-0.512,0.004-1.038,0.007-1.577,0.011c-0.539,0.017-1.092,0.061-1.659,0.092c-4.524,0.234-9.925,0.965-15.614,2.857
						c-5.677,1.929-11.501,5.14-17.069,9.264c-5.631,4.044-10.612,8.411-14.678,12.83c-4.116,4.373-7.332,8.747-9.804,12.55
						c-2.456,3.82-4.118,7.111-5.166,9.424c-0.558,1.143-0.904,2.068-1.179,2.679c-0.125,0.283-0.226,0.512-0.308,0.697
						c-0.072,0.156-0.113,0.235-0.122,0.232c-0.008-0.003,0.016-0.088,0.072-0.25c0.069-0.19,0.154-0.426,0.26-0.717
						c0.244-0.624,0.561-1.564,1.091-2.723c0.994-2.345,2.613-5.675,5.041-9.539c2.444-3.846,5.646-8.266,9.763-12.679
						c4.065-4.457,9.074-8.867,14.725-12.925c5.589-4.14,11.483-7.376,17.221-9.296c5.752-1.885,11.2-2.581,15.749-2.77
						c0.57-0.025,1.125-0.063,1.668-0.074c0.542,0.003,1.07,0.005,1.584,0.007c1.027,0.016,1.996-0.014,2.9,0.042
						c1.807,0.116,3.367,0.157,4.633,0.302c1.234,0.137,2.208,0.245,2.915,0.323c0.307,0.039,0.556,0.071,0.756,0.097
						C277.218,74.333,277.304,74.35,277.303,74.359z"/>
				</g>
			</g>
			<g>
				<g>
					<path style="fill:#263238;" d="M213.801,137.745c-0.018,0.031-0.348-0.136-0.933-0.468c-0.296-0.161-0.65-0.372-1.033-0.658
						c-0.386-0.281-0.848-0.576-1.294-0.982c-0.94-0.756-1.954-1.783-2.964-3.019c-0.983-1.257-1.945-2.736-2.742-4.4
						c-0.776-1.675-1.304-3.358-1.648-4.917c-0.31-1.566-0.456-3.002-0.441-4.208c-0.028-0.603,0.038-1.146,0.067-1.623
						c0.023-0.478,0.086-0.885,0.15-1.215c0.116-0.663,0.197-1.023,0.232-1.017c0.105,0.015-0.167,1.479-0.081,3.848
						c0.032,1.184,0.213,2.586,0.542,4.113c0.362,1.52,0.892,3.16,1.65,4.797c0.78,1.627,1.708,3.079,2.649,4.325
						c0.968,1.225,1.934,2.258,2.827,3.036C212.555,136.932,213.857,137.655,213.801,137.745z"/>
				</g>
			</g>
			<g>
				<g>
					<path style="fill:#263238;" d="M222.296,124.011c-0.023,0.028-0.296-0.16-0.772-0.525c-0.482-0.359-1.138-0.932-1.906-1.683
						c-1.539-1.498-3.451-3.818-5.019-6.714c-1.559-2.902-2.446-5.775-2.851-7.884c-0.206-1.055-0.324-1.917-0.359-2.517
						c-0.043-0.599-0.05-0.93-0.014-0.934c0.091-0.01,0.235,1.306,0.732,3.371c0.492,2.063,1.418,4.864,2.95,7.717
						c1.541,2.847,3.371,5.159,4.824,6.705C221.334,123.097,222.354,123.941,222.296,124.011z"/>
				</g>
			</g>
			<g>
				<g>
					<path style="fill:#263238;" d="M235.311,112.048c-0.07,0.035-0.72-1.153-1.803-3.052c-1.082-1.898-2.619-4.496-4.445-7.283
						c-1.829-2.786-3.599-5.231-4.91-6.98c-1.309-1.75-2.14-2.82-2.08-2.869c0.028-0.023,0.269,0.216,0.683,0.669
						c0.416,0.451,0.993,1.125,1.687,1.974c1.389,1.697,3.216,4.12,5.055,6.921c1.835,2.801,3.33,5.442,4.333,7.393
						c0.502,0.975,0.89,1.773,1.138,2.334C235.22,111.715,235.343,112.032,235.311,112.048z"/>
				</g>
			</g>
			<g>
				<g>
					<path style="fill:#263238;" d="M276.578,74.167c0.022-0.028,0.417,0.258,1.113,0.802c0.353,0.267,0.774,0.607,1.228,1.042
						c0.458,0.43,1.006,0.895,1.534,1.485c1.112,1.128,2.311,2.593,3.508,4.314c1.166,1.741,2.311,3.751,3.273,5.974
						c0.938,2.234,1.597,4.452,2.047,6.499c0.414,2.055,0.641,3.935,0.685,5.518c0.061,0.79,0.017,1.507,0.01,2.135
						c0,0.629-0.046,1.168-0.098,1.608c-0.089,0.88-0.156,1.362-0.191,1.359c-0.108-0.008,0.116-1.953-0.089-5.081
						c-0.09-1.564-0.352-3.414-0.786-5.436c-0.47-2.014-1.132-4.195-2.057-6.397c-0.949-2.191-2.064-4.178-3.192-5.911
						c-1.159-1.712-2.313-3.182-3.379-4.33C278.068,75.436,276.509,74.251,276.578,74.167z"/>
				</g>
			</g>
			<g>
				<g>
					<path style="fill:#263238;" d="M256.821,73.938c0.025-0.026,0.345,0.241,0.898,0.749c0.552,0.509,1.337,1.26,2.288,2.209
						c0.949,0.95,2.068,2.092,3.266,3.406c1.192,1.314,2.504,2.786,3.61,4.546c2.208,3.546,2.98,7.298,3.447,9.921
						c0.229,1.325,0.375,2.401,0.471,3.146c0.093,0.745,0.127,1.16,0.091,1.165c-0.035,0.006-0.137-0.397-0.291-1.132
						c-0.171-0.842-0.383-1.882-0.633-3.11c-0.557-2.599-1.377-6.265-3.527-9.715c-1.074-1.711-2.356-3.174-3.525-4.501
						c-1.172-1.324-2.261-2.49-3.174-3.47c-0.855-0.917-1.579-1.693-2.166-2.321C257.068,74.278,256.796,73.963,256.821,73.938z"/>
				</g>
			</g>
			<g>
				<g>
					<path style="fill:#263238;" d="M252.24,103.316c-0.083,0.026-0.56-1.436-1.507-3.724c-0.944-2.287-2.417-5.381-4.418-8.58
						c-2.009-3.196-4.153-5.869-5.801-7.715c-1.647-1.849-2.755-2.914-2.696-2.978c0.024-0.026,0.325,0.215,0.848,0.674
						c0.528,0.455,1.255,1.155,2.118,2.054c1.729,1.794,3.943,4.459,5.972,7.688c2.022,3.231,3.457,6.384,4.32,8.722
						c0.433,1.169,0.747,2.128,0.927,2.801C252.188,102.93,252.274,103.305,252.24,103.316z"/>
				</g>
			</g>
			<g style="opacity:0.3;">
				<g>
					<path d="M203.901,112.866c2.734-12.584,10.395-24.029,20.986-31.354c10.591-7.325,24.003-10.454,36.743-8.572
						c-9.018,0.23-18.773,4.259-26.319,9.202C224.692,89.096,216.14,95.956,203.901,112.866"/>
				</g>
			</g>
		</g>
	</g>
	<g>
		<g>
			<g>
				<g>
					<g>
						<g>
							<g>
								<g>
									<g>
										<g>
											<path style="fill:#455A64;" d="M418.808,189.084H85.266c-5.75,0-10.411,4.661-10.411,10.411v235.588
												c0,5.751,4.661,10.412,10.411,10.412h128.013c0,0,8.143,25.18-17.1,38.209h119.699c0,0-28.5-9.771-21.172-38.209h124.104
												c5.749,0,10.411-4.662,10.411-10.411V199.496C429.22,193.745,424.559,189.084,418.808,189.084z"/>
										</g>
									</g>
								</g>
							</g>
						</g>
						<g>
							<g>
								<g>
									<g>
										<g>
											<path style="fill:#263238;" d="M256.491,420.719c4.537,6.484-2.564,13.586-9.05,9.05
												c-0.213-0.15-0.408-0.345-0.557-0.559c-4.525-6.483,2.568-13.575,9.049-9.048
												C256.147,420.31,256.341,420.505,256.491,420.719z"/>
										</g>
									</g>
								</g>
							</g>
						</g>
					</g>
					<g>
						<g>
							<g>
								<path style="fill:#FFFFFF;" d="M423.477,402.396H80.598V203.098c0-5.356,4.342-9.697,9.697-9.697H413.78
									c5.356,0,9.697,4.342,9.697,9.697V402.396z"/>
							</g>
						</g>
					</g>
				</g>
				<g>
					<g>
						<path style="fill:#EBEBEB;" d="M423.477,210.766H80.598v-8.212c0-5.055,4.098-9.154,9.154-9.154h326.21
							c4.151,0,7.516,3.365,7.516,7.516V210.766z"/>
					</g>
				</g>
				<g>
					<g>
						<g>
							<circle style="fill:#E0E0E0;" cx="91.517" cy="202.448" r="2.409"/>
						</g>
					</g>
					<g>
						<g>
							<circle style="fill:#E0E0E0;" cx="98.697" cy="202.448" r="2.409"/>
						</g>
					</g>
					<g>
						<g>
							<circle style="fill:#E0E0E0;" cx="105.525" cy="202.448" r="2.409"/>
						</g>
					</g>
				</g>
			</g>
			<g>
				<g>
					<g>
						<path style="fill:#263238;" d="M359.177,445.529c0,0.111-47.463,0.2-105.999,0.2c-58.556,0-106.009-0.09-106.009-0.2
							c0-0.111,47.453-0.2,106.009-0.2C311.713,445.329,359.177,445.418,359.177,445.529z"/>
					</g>
				</g>
			</g>
		</g>
	</g>
	<g>
		<g>
			<path style="fill:#455A64;" d="M130.842,169.385c-0.327-3.98-3.289-7.42-6.905-9.114c-3.616-1.694-7.781-1.858-11.741-1.342
				c-3.96,0.516-7.804,1.672-11.706,2.521c-9.149,1.99-19.18,2.514-26.512,8.337c-7.294,5.792-10.915,14.256-7.497,22.92
				l47.265-0.238l15.706-10.605L130.842,169.385z"/>
		</g>
		<g>
			<g>
				<path style="fill:#263238;" d="M135.476,171.51c-1.639-3.791-5.17-6.583-9.101-7.847c-3.931-1.264-8.22-1.11-12.232-0.132
					c-6.788,1.655-13.257,6.037-15.759,12.561c-0.997,2.6-1.326,5.499-0.641,8.198c0.685,2.699,1.902,5.542,4.374,6.824
					c2.472,1.282,7.564,1.993,11.628,1.355l20.064-9.365C136.609,180.069,137.114,175.301,135.476,171.51z"/>
			</g>
			<g>
				<g>
					<g>
						<path style="fill:#EBEBEB;" d="M91.553,232.878l22.534,47.478c2.316,4.879,8.023,7.122,13.041,5.124l80.073-31.881
							c5.68-2.261,8.335-8.796,5.841-14.378l-21.213-47.49c-2.363-5.29-8.492-7.757-13.861-5.581l-81.012,32.846
							C91.499,221.209,89.027,227.558,91.553,232.878z"/>
					</g>
					<g>
						<g>
							<path style="fill:#263238;" d="M91.553,232.878c0,0-0.131-0.271-0.363-0.812c-0.213-0.547-0.487-1.389-0.618-2.535
								c-0.133-1.139-0.091-2.601,0.425-4.212c0.231-0.814,0.649-1.631,1.149-2.464c0.534-0.814,1.216-1.606,2.049-2.324
								c1.696-1.462,4.095-2.139,6.507-3.188c2.453-1.002,5.117-2.09,7.979-3.258c5.729-2.335,12.249-4.993,19.456-7.93
								c14.436-5.854,31.553-12.893,50.699-20.562c2.518-0.766,5.347-0.587,7.792,0.553c2.456,1.114,4.474,3.215,5.545,5.743
								c2.199,4.918,4.445,9.939,6.73,15.051c4.569,10.225,9.3,20.812,14.146,31.655c1.338,2.704,1.572,5.975,0.508,8.792
								c-1.018,2.829-3.242,5.172-5.975,6.323c-5.375,2.145-10.672,4.258-15.876,6.334c-10.409,4.139-20.45,8.131-30.015,11.934
								c-9.566,3.799-18.656,7.41-27.164,10.79c-2.127,0.844-4.218,1.674-6.27,2.489c-1.012,0.413-2.07,0.82-3.161,1.002
								c-1.088,0.202-2.198,0.182-3.267,0.029c-2.15-0.301-4.124-1.312-5.638-2.727c-0.76-0.709-1.379-1.54-1.892-2.413
								c-0.502-0.892-0.872-1.788-1.303-2.666c-6.64-14.072-12.014-25.461-15.735-33.346c-1.843-3.933-3.276-6.99-4.254-9.077
								c-0.477-1.031-0.842-1.821-1.094-2.366C91.666,233.158,91.553,232.878,91.553,232.878s0.145,0.264,0.405,0.791
								c0.263,0.54,0.644,1.322,1.141,2.344c0.999,2.078,2.461,5.121,4.343,9.035c3.756,7.869,9.182,19.234,15.885,33.275
								c0.429,0.867,0.818,1.793,1.298,2.636c0.497,0.84,1.095,1.639,1.829,2.32c1.462,1.357,3.364,2.326,5.433,2.61
								c1.028,0.144,2.095,0.162,3.14-0.036c1.051-0.18,2.047-0.564,3.076-0.986c2.051-0.819,4.14-1.653,6.265-2.502
								c8.503-3.393,17.587-7.019,27.146-10.834c9.562-3.812,19.599-7.814,30.004-11.962c5.199-2.077,10.49-4.191,15.86-6.336
								c2.605-1.098,4.721-3.329,5.691-6.026c1.008-2.697,0.801-5.773-0.495-8.4c-4.842-10.844-9.57-21.433-14.136-31.659
								c-2.282-5.114-4.523-10.137-6.719-15.057c-1.034-2.438-2.948-4.428-5.297-5.502c-2.336-1.092-5.038-1.266-7.447-0.537
								c-19.079,7.694-36.263,14.623-50.699,20.444c-7.218,2.911-13.748,5.545-19.485,7.859c-2.868,1.154-5.537,2.229-7.995,3.218
								c-2.43,1.039-4.814,1.7-6.471,3.114c-0.821,0.699-1.496,1.47-2.028,2.266c-0.497,0.814-0.917,1.614-1.152,2.414
								c-0.524,1.582-0.584,3.025-0.468,4.154C90.921,231.801,91.63,232.859,91.553,232.878z"/>
						</g>
					</g>
				</g>
				<g>
					<path style="fill:#455A64;" d="M161.986,259.41l-35.273,15.008c-1.434,0.61-3.091-0.058-3.701-1.492l0,0
						c-0.61-1.434,0.058-3.091,1.492-3.701l35.273-15.008c1.434-0.61,3.091,0.058,3.701,1.492l0,0
						C164.088,257.143,163.42,258.8,161.986,259.41z"/>
				</g>
				<g>
					<path style="fill:#FFFFFF;" d="M200.465,238.12c1.298,3.051-0.123,6.577-3.174,7.875c-3.051,1.298-6.577-0.123-7.875-3.174
						c-1.298-3.051,0.123-6.577,3.174-7.875C195.641,233.648,199.167,235.069,200.465,238.12z"/>
				</g>
				<g>
					<path style="fill:#FF725E;" d="M194.46,240.715c1.298,3.051-0.123,6.577-3.174,7.875c-3.051,1.298-6.577-0.123-7.875-3.174
						c-1.298-3.051,0.123-6.577,3.174-7.875C189.636,236.243,193.162,237.664,194.46,240.715z"/>
				</g>
				<g>
					<path style="fill:#FF725E;" d="M115.255,232.745l-6.558,2.79c-1.904,0.81-4.104-0.077-4.914-1.98l0,0
						c-0.81-1.904,0.077-4.104,1.98-4.913l6.558-2.79c1.904-0.81,4.104,0.077,4.914,1.98l0,0
						C118.045,229.735,117.158,231.935,115.255,232.745z"/>
				</g>
				<g>
					
						<rect x="172.479" y="196.631" transform="matrix(0.9202 -0.3915 0.3915 0.9202 -63.6294 86.289)" style="fill:#E0E0E0;" width="14.619" height="5.1"/>
				</g>
				<g>
					
						<rect x="112.704" y="245.227" transform="matrix(0.9202 -0.3915 0.3915 0.9202 -88.3116 66.4757)" style="fill:#E0E0E0;" width="12.305" height="9.14"/>
				</g>
				<g>
					
						<rect x="130.055" y="236.983" transform="matrix(0.9202 -0.3915 0.3915 0.9202 -83.4569 73.7939)" style="fill:#FFFFFF;" width="18.353" height="9.14"/>
				</g>
				<g>
					
						<rect x="151.774" y="227.317" transform="matrix(0.9202 -0.3915 0.3915 0.9202 -77.9386 81.5255)" style="fill:#FFFFFF;" width="18.353" height="9.14"/>
				</g>
				<g>
					
						<rect x="173.35" y="216.951" transform="matrix(0.9202 -0.3915 0.3915 0.9202 -72.0149 89.8452)" style="fill:#FFFFFF;" width="21.929" height="9.14"/>
				</g>
			</g>
			<g>
				<g>
					<path style="fill:#263238;" d="M127.12,168.05c0,0,40.782,7.93,42.198,8.78c1.416,0.85,20.958,15.293,21.241,20.391
						c0.283,5.098-6.797,27.755-6.797,27.755s-6.797,0.85-7.08-11.328c-0.283-12.178-0.283-12.178-0.283-12.178l-9.063-6.797
						c0,0,3.682,13.311,2.832,17.276c-0.85,3.965-7.639,13.903-11.324,13.04c-3.686-0.862-5.668-3.411-5.668-3.411
						s-3.399,8.911-12.744,3.464c0,0-6.231,2.484-11.045-0.066c-4.815-2.549-9.063-10.479-9.063-10.479s-0.283-4.815,4.815-4.531
						c5.098,0.283,9.629,3.965,9.629,3.965l0.566-5.098c0,0-5.947-7.517-12.178-11.405c-6.231-3.888-26.367-8.903-20.64-22.812
						l6.078-3.156L127.12,168.05z"/>
				</g>
				<g>
					<g>
						<path style="fill:none;stroke:#FFE1D3;stroke-miterlimit:10;" d="M142.475,220.85"/>
					</g>
				</g>
				<g>
					<g>
						<path style="fill:#455A64;" d="M145.707,201.549c0.028-0.014,0.232,0.299,0.534,0.902c0.303,0.603,0.682,1.508,1.02,2.671
							c0.687,2.307,1.087,5.751,0.221,9.38c-0.867,3.63-2.78,6.522-4.435,8.27c-0.827,0.884-1.574,1.521-2.117,1.922
							c-0.542,0.402-0.865,0.59-0.884,0.564c-0.062-0.077,1.169-0.932,2.726-2.731c1.555-1.778,3.361-4.62,4.203-8.145
							c0.841-3.524,0.513-6.876-0.07-9.164C146.329,202.909,145.617,201.59,145.707,201.549z"/>
					</g>
				</g>
				<g>
					<g>
						<path style="fill:#455A64;" d="M155.285,194.53c0.032-0.016,0.229,0.329,0.559,0.972c0.171,0.319,0.365,0.716,0.549,1.195
							c0.189,0.477,0.433,1.011,0.614,1.633c0.425,1.223,0.787,2.727,1.048,4.42c0.229,1.697,0.337,3.585,0.224,5.562
							c-0.137,1.976-0.484,3.835-0.925,5.49c-0.473,1.647-1.022,3.094-1.598,4.253c-0.258,0.594-0.568,1.093-0.815,1.542
							c-0.243,0.452-0.486,0.821-0.696,1.116c-0.409,0.595-0.648,0.913-0.678,0.893c-0.087-0.056,0.82-1.371,1.854-3.705
							c0.526-1.162,1.03-2.598,1.469-4.223c0.409-1.633,0.734-3.46,0.869-5.399c0.112-1.94,0.019-3.793-0.179-5.464
							c-0.231-1.667-0.549-3.155-0.923-4.375C155.926,195.994,155.191,194.574,155.285,194.53z"/>
					</g>
				</g>
				<g>
					<g>
						<path style="fill:#455A64;" d="M165.474,185.264c0.039-0.044,0.523,0.294,1.104,1.042c0.581,0.742,1.204,1.93,1.484,3.357
							c0.274,1.428,0.138,2.764-0.124,3.669c-0.259,0.911-0.583,1.405-0.635,1.379c-0.158-0.04,0.806-2.215,0.247-4.949
							C167.049,187.019,165.343,185.36,165.474,185.264z"/>
					</g>
				</g>
			</g>
			<g>
				<g>
					<path style="fill:#455A64;" d="M130.879,169.389c-0.046,0.121-1.964-1.048-5.432-1.626c-1.724-0.294-3.826-0.37-6.112-0.051
						c-2.28,0.335-4.74,1.108-7.02,2.482c-2.274,1.374-4.213,3.096-5.499,4.999c-1.341,1.874-1.935,3.925-2.056,5.647
						c-0.121,1.739,0.236,3.133,0.481,4.076c0.319,0.925,0.502,1.442,0.466,1.458c-0.029,0.014-0.275-0.475-0.659-1.395
						c-0.309-0.938-0.733-2.354-0.657-4.16c0.075-1.786,0.661-3.942,2.027-5.898c1.311-1.987,3.297-3.768,5.627-5.176
						c2.346-1.414,4.882-2.195,7.221-2.511c2.346-0.301,4.495-0.183,6.243,0.163c1.751,0.341,3.117,0.83,4.015,1.254
						c0.46,0.188,0.787,0.398,1.019,0.517C130.772,169.298,130.887,169.373,130.879,169.389z"/>
				</g>
			</g>
		</g>
	</g>
	<g>
		<g>
			<g style="opacity:0.3;">
				<g>
					<path d="M415.236,276.163c3.39,11.337,1.73,25.599,5.119,36.936c0.507,1.694,1.007,3.554,0.318,5.183
						c-0.828,1.957-3.084,2.875-5.179,3.223c-5.798,0.963-11.882-1.027-16.439-4.74c-4.557-3.712-7.658-9.016-9.34-14.647
						c-1.352-4.526-1.811-9.512-0.084-13.908C392.644,280.534,407.042,275.233,415.236,276.163z"/>
				</g>
			</g>
			<g>
				<g>
					<g>
						<path style="fill:#263238;" d="M399.561,323.703c0,0,9.093,6.017,13.018,6.569c3.926,0.552,17.875-2.469,17.875-2.469
							s6.948-6.058,2.333-9.676c0,0,2.175-1.046,3.996-2.752c2.476-2.321,2.958-3.533,0.457-9.387c0,0,3.889-4.985,3.498-7.567
							c-0.55-3.629-2.949-5.873-2.949-5.873s3.946-7.196-2.921-10.562c-1.464-0.717-2.638-2.403-3.491-4.081
							c-1.5-2.952-4.062-5.214-7.225-6.197c-4.304-1.337-8.766-0.907-8.766-0.907l0.001,10.276c0,0-24.431,0.005-26.879,1.953
							c-5.348,4.256,3.128,8.665,3.128,8.665s-5.304,5.34,0.19,7.739c0,0-3.946,5.206,1.702,7.97
							c3.317,1.623,27.518,9.093,27.518,9.093l-12.198,1.222c0,0-8.499-4.141-10.035-1.415
							C397.278,319.032,399.561,323.703,399.561,323.703z"/>
					</g>
				</g>
			</g>
		</g>
		<g>
			<g>
				<path style="fill:#455A64;" d="M426.275,304.98c-0.008,0.035-0.497-0.034-1.376-0.19c-0.976-0.179-2.223-0.407-3.715-0.681
					c-3.135-0.581-7.469-1.359-12.272-2.124c-4.805-0.762-9.167-1.365-12.328-1.784c-1.503-0.203-2.76-0.372-3.743-0.504
					c-0.883-0.125-1.37-0.21-1.367-0.246c0.004-0.036,0.498-0.018,1.388,0.044c0.891,0.061,2.177,0.176,3.765,0.34
					c3.175,0.327,7.554,0.872,12.366,1.636c4.811,0.765,9.142,1.603,12.262,2.277c1.56,0.336,2.819,0.625,3.685,0.843
					C425.808,304.809,426.283,304.945,426.275,304.98z"/>
			</g>
		</g>
		<g>
			<g>
				<path style="fill:#455A64;" d="M429.359,293.439c-0.007,0.035-0.535-0.023-1.483-0.158c-1.044-0.144-2.394-0.33-4.017-0.554
					c-3.393-0.446-8.097-0.943-13.312-1.184c-5.217-0.235-9.947-0.168-13.367-0.033c-1.637,0.075-2.998,0.138-4.051,0.186
					c-0.957,0.049-1.488,0.059-1.491,0.023s0.522-0.114,1.475-0.225c0.953-0.115,2.336-0.238,4.048-0.352
					c3.424-0.23,8.173-0.355,13.409-0.12c5.235,0.242,9.952,0.799,13.341,1.339c1.695,0.269,3.061,0.517,4,0.719
					C428.849,293.277,429.365,293.403,429.359,293.439z"/>
			</g>
		</g>
	</g>
</g>
<g id="Coin_2">
	<g>
		<g>
			<g>
				<g>
					<g>
						<g>
							<g>
								<g>
									<g>
										<g>
											<g>
												<path style="fill:#FF725E;" d="M395.414,366.475c-2.677,13.953-16.158,23.094-30.111,20.418
													c-13.954-2.677-23.094-16.158-20.418-30.111c2.677-13.954,16.157-23.094,30.111-20.418
													C388.949,339.041,398.09,352.521,395.414,366.475z"/>
											</g>
										</g>
									</g>
								</g>
								<g style="opacity:0.1;">
									<g>
										<g>
											<path style="fill:#FFFFFF;" d="M374.996,336.364c-13.954-2.677-27.434,6.464-30.111,20.418c0,0,17.6,4.2,23.243-2.13
												C373.77,348.321,374.996,336.364,374.996,336.364z"/>
										</g>
									</g>
								</g>
								<g>
									<g>
										<g>
											<path style="fill:#FF725E;" d="M389.032,364.836c-2.035,10.608-12.283,17.557-22.89,15.522
												c-10.608-2.035-17.556-12.283-15.521-22.891c2.035-10.608,12.283-17.557,22.891-15.522
												C384.118,343.98,391.067,354.228,389.032,364.836z"/>
										</g>
									</g>
								</g>
								<g style="opacity:0.2;">
									<g>
										<g>
											<path d="M389.032,364.836c-2.035,10.608-12.283,17.557-22.89,15.522c-10.608-2.035-17.556-12.283-15.521-22.891
												c2.035-10.608,12.283-17.557,22.891-15.522C384.118,343.98,391.067,354.228,389.032,364.836z"/>
										</g>
									</g>
								</g>
								<g>
									<g>
										<g>
											<path style="fill:#FF725E;" d="M389.421,365.74c-2.008,10.465-12.118,17.321-22.583,15.313
												c-10.466-2.008-17.321-12.118-15.313-22.583c2.008-10.465,12.118-17.321,22.583-15.313
												C384.573,345.164,391.428,355.275,389.421,365.74z"/>
										</g>
									</g>
								</g>
								<g style="opacity:0.2;">
									<g>
										<g>
											<path style="fill:#FFFFFF;" d="M389.421,365.74c-2.008,10.465-12.118,17.321-22.583,15.313
												c-10.466-2.008-17.321-12.118-15.313-22.583c2.008-10.465,12.118-17.321,22.583-15.313
												C384.573,345.164,391.428,355.275,389.421,365.74z"/>
										</g>
									</g>
								</g>
							</g>
						</g>
					</g>
				</g>
				<g>
					<g>
						<g>
							<g>
								<g>
									<path style="fill:#FF725E;" d="M371.543,360.607l0.93-4.847c0.008,0.001,0.016,0.003,0.024,0.004
										c0.823,0.259,1.652,0.651,2.448,1.166c0.649,0.511,1.061,0.993,1.061,0.993l0.093-0.137l1.083-1.602l0.249-0.368
										l-0.69-1.073l-0.452,0.107c-0.958-0.734-2.086-1.381-3.317-1.687l0.511-2.666l-0.702-0.828l-0.128,0.669l-1.139-0.219
										l-0.521,2.714c-3.816-0.358-6.004,1.438-6.473,3.888c-0.64,3.338,2.052,4.751,4.593,5.911l-0.921,4.803
										c-1.793-0.518-3.461-1.56-4.454-2.747l-1.546,2.218c1.041,1.321,3.176,2.527,5.502,3.123l-0.386,2.013l-0.941-0.163
										l0.816,0.816l1.969,0.378l0.516-2.69c3.845,0.339,6.051-1.429,6.521-3.879
										C376.829,363.165,374.084,361.767,371.543,360.607z M369.67,359.725c-1.315-0.676-2.246-1.402-2.025-2.555
										c0.203-1.057,1.089-1.783,2.845-1.72L369.67,359.725z M372.474,355.755L372.474,355.755L372.474,355.755
										C372.474,355.755,372.474,355.755,372.474,355.755z M370.17,367.765l0.815-4.251c1.363,0.685,2.314,1.44,2.088,2.617
										C372.875,367.163,371.974,367.836,370.17,367.765z"/>
								</g>
							</g>
						</g>
					</g>
					<g style="opacity:0.3;">
						<g>
							<g>
								<g>
									<path d="M371.543,360.607l0.93-4.847c0.008,0.001,0.016,0.003,0.024,0.004c0.823,0.259,1.652,0.651,2.448,1.166
										c0.649,0.511,1.061,0.993,1.061,0.993l0.093-0.137l1.083-1.602l0.249-0.368l-0.69-1.073l-0.452,0.107
										c-0.958-0.734-2.086-1.381-3.317-1.687l0.511-2.666l-0.702-0.828l-0.128,0.669l-1.139-0.219l-0.521,2.714
										c-3.816-0.358-6.004,1.438-6.473,3.888c-0.64,3.338,2.052,4.751,4.593,5.911l-0.921,4.803
										c-1.793-0.518-3.461-1.56-4.454-2.747l-1.546,2.218c1.041,1.321,3.176,2.527,5.502,3.123l-0.386,2.013l-0.941-0.163
										l0.816,0.816l1.969,0.378l0.516-2.69c3.845,0.339,6.051-1.429,6.521-3.879
										C376.829,363.165,374.084,361.767,371.543,360.607z M369.67,359.725c-1.315-0.676-2.246-1.402-2.025-2.555
										c0.203-1.057,1.089-1.783,2.845-1.72L369.67,359.725z M372.474,355.755L372.474,355.755L372.474,355.755
										C372.474,355.755,372.474,355.755,372.474,355.755z M370.17,367.765l0.815-4.251c1.363,0.685,2.314,1.44,2.088,2.617
										C372.875,367.163,371.974,367.836,370.17,367.765z"/>
								</g>
							</g>
						</g>
					</g>
					<g>
						<g>
							<g>
								<path style="fill:#FF725E;" d="M368.979,369.568l-0.516,2.691l-1.97-0.378l0.512-2.667
									c-2.326-0.596-4.461-1.802-5.503-3.123l1.546-2.218c0.993,1.187,2.661,2.229,4.454,2.747l0.922-4.805
									c-2.542-1.16-5.235-2.573-4.594-5.912c0.47-2.45,2.658-4.247,6.474-3.889l0.521-2.714l1.97,0.378l-0.512,2.666
									c1.76,0.437,3.459,1.311,4.596,2.401l-1.451,2.237c-1.13-0.989-2.397-1.655-3.642-2.044l-0.931,4.852
									c2.542,1.16,5.287,2.559,4.647,5.898C375.032,368.139,372.824,369.907,368.979,369.568z M368.982,358.909l0.82-4.276
									c-1.756-0.063-2.643,0.664-2.845,1.721C366.736,357.506,367.667,358.233,368.982,358.909z M372.385,365.315
									c0.226-1.177-0.725-1.932-2.088-2.617l-0.816,4.252C371.286,367.022,372.187,366.348,372.385,365.315z"/>
							</g>
						</g>
					</g>
				</g>
			</g>
			<g>
				<g>
					<g>
						<g>
							<path style="fill:#FFFFFF;" d="M346.361,369.353c-0.006,0.002-0.034-0.073-0.08-0.218c-0.05-0.165-0.115-0.376-0.194-0.636
								c-0.086-0.276-0.183-0.616-0.267-1.019c-0.087-0.401-0.207-0.855-0.278-1.367c-0.042-0.256-0.085-0.523-0.13-0.802
								c-0.043-0.279-0.064-0.573-0.098-0.875c-0.077-0.604-0.095-1.255-0.126-1.939c-0.022-1.368,0.05-2.876,0.279-4.44
								c0.244-1.563,0.621-3.024,1.046-4.325c0.232-0.644,0.441-1.26,0.694-1.815c0.122-0.279,0.228-0.553,0.352-0.807
								c0.125-0.252,0.246-0.495,0.361-0.728c0.22-0.469,0.468-0.866,0.67-1.224c0.198-0.36,0.392-0.656,0.556-0.894
								c0.153-0.225,0.277-0.408,0.374-0.55c0.087-0.125,0.135-0.188,0.141-0.184c0.005,0.004-0.032,0.075-0.109,0.206
								c-0.089,0.147-0.202,0.336-0.343,0.569c-0.154,0.243-0.337,0.545-0.526,0.908c-0.192,0.361-0.431,0.761-0.642,1.231
								c-0.111,0.232-0.227,0.476-0.348,0.728c-0.12,0.254-0.222,0.528-0.34,0.806c-0.245,0.554-0.447,1.168-0.673,1.809
								c-0.413,1.295-0.782,2.747-1.024,4.298c-0.227,1.553-0.303,3.049-0.292,4.408c0.027,0.679,0.038,1.326,0.108,1.927
								c0.031,0.301,0.047,0.593,0.086,0.871c0.041,0.277,0.08,0.544,0.117,0.799c0.062,0.512,0.172,0.964,0.249,1.366
								c0.073,0.403,0.159,0.744,0.234,1.023c0.065,0.264,0.118,0.478,0.159,0.645C346.352,369.272,346.367,369.351,346.361,369.353
								z"/>
						</g>
					</g>
				</g>
			</g>
			<g>
				<g>
					<g>
						<g>
							<path style="fill:#FFFFFF;" d="M365.087,358.227c-0.014,0.013-0.243-0.204-0.452-0.661c-0.209-0.449-0.365-1.163-0.192-1.921
								c0.174-0.758,0.626-1.333,1.009-1.646c0.387-0.321,0.688-0.417,0.694-0.398c0.016,0.029-0.257,0.167-0.604,0.499
								c-0.345,0.326-0.75,0.88-0.913,1.588c-0.161,0.709-0.038,1.383,0.13,1.827C364.928,357.965,365.114,358.208,365.087,358.227z
								"/>
						</g>
					</g>
				</g>
			</g>
			<g>
				<g>
					<g>
						<g>
							<path style="fill:#FFFFFF;" d="M370.787,351.695c-0.052-0.01-0.026-0.372,0.057-0.808c0.084-0.436,0.194-0.782,0.246-0.772
								c0.052,0.01,0.026,0.372-0.057,0.808C370.949,351.359,370.839,351.705,370.787,351.695z"/>
						</g>
					</g>
				</g>
			</g>
			<g>
				<g>
					<g>
						<g>
							<path style="fill:#FFFFFF;" d="M375.341,341.784c-0.004,0.013-0.222-0.039-0.613-0.143c-0.194-0.054-0.433-0.118-0.714-0.174
								c-0.28-0.059-0.596-0.141-0.953-0.195c-0.355-0.064-0.743-0.131-1.165-0.175c-0.419-0.061-0.871-0.085-1.346-0.121
								c-0.951-0.044-1.999-0.036-3.093,0.068c-1.093,0.113-2.123,0.311-3.047,0.541c-0.458,0.128-0.897,0.241-1.296,0.383
								c-0.405,0.125-0.773,0.268-1.108,0.4c-0.34,0.122-0.633,0.265-0.896,0.378c-0.264,0.111-0.486,0.22-0.666,0.311
								c-0.362,0.178-0.566,0.272-0.573,0.26c-0.006-0.012,0.185-0.127,0.538-0.326c0.175-0.102,0.393-0.221,0.655-0.342
								c0.26-0.123,0.552-0.275,0.891-0.406c0.335-0.141,0.703-0.292,1.109-0.425c0.4-0.15,0.841-0.269,1.302-0.403
								c0.93-0.241,1.969-0.446,3.072-0.56c1.104-0.104,2.163-0.107,3.122-0.053c0.479,0.041,0.934,0.071,1.356,0.14
								c0.424,0.051,0.815,0.127,1.17,0.199c0.358,0.062,0.674,0.154,0.953,0.224c0.28,0.067,0.517,0.141,0.709,0.207
								C375.135,341.696,375.345,341.772,375.341,341.784z"/>
						</g>
					</g>
				</g>
			</g>
			<g>
				<g>
					<g>
						<g>
							<path style="fill:#FFFFFF;" d="M368.631,386.176c0,0.013-0.168,0.025-0.474,0.036c-0.305,0.013-0.748,0.007-1.294-0.024
								c-1.092-0.061-2.6-0.272-4.203-0.752c-1.602-0.484-2.977-1.14-3.921-1.692c-0.473-0.275-0.846-0.514-1.093-0.694
								c-0.249-0.177-0.383-0.28-0.375-0.291c0.007-0.011,0.155,0.071,0.416,0.229c0.259,0.16,0.64,0.38,1.118,0.638
								c0.954,0.518,2.323,1.147,3.91,1.626c1.587,0.475,3.076,0.706,4.158,0.801c0.541,0.048,0.981,0.075,1.285,0.085
								C368.462,386.149,368.63,386.163,368.631,386.176z"/>
						</g>
					</g>
				</g>
			</g>
		</g>
	</g>
</g>
<g id="Document">
	<g>
		<g>
			<g>
				<g>
					<g>
						<g>
							<g>
								<g>
									<g>
										<g>
											<g>
												<g>
													<path style="fill:#FAFAFA;" d="M347.313,304.126l-64.157-32.822c-4.433-2.268-6.189-7.701-3.921-12.134l45.429-88.802
														c2.268-4.434,7.701-6.189,12.134-3.921l40.688,20.815l14.889,48.576l-32.929,64.366
														C357.18,304.638,351.747,306.394,347.313,304.126z"/>
												</g>
												<g>
													<g>
														<path style="fill:#263238;" d="M347.313,304.126c0,0,0.127,0.045,0.369,0.147c0.239,0.111,0.601,0.26,1.099,0.404
															c0.98,0.293,2.544,0.588,4.512,0.172c1.918-0.424,4.312-1.658,5.783-4.195c1.368-2.569,2.859-5.596,4.578-8.949
															c6.857-13.451,16.671-32.705,28.528-55.965l-0.014,0.163c-4.514-14.693-9.547-31.079-14.92-48.566l0.125,0.149
															c-7.545-3.857-15.4-7.872-23.482-12.004c-4.041-2.066-8.138-4.162-12.282-6.281c-1.036-0.53-2.075-1.061-3.116-1.594
															c-1.051-0.519-2.067-1.126-3.146-1.466c-2.173-0.706-4.633-0.499-6.679,0.567c-1.423,0.736-2.646,1.866-3.458,3.239
															c-0.788,1.4-1.505,2.904-2.258,4.343c-1.487,2.907-2.965,5.795-4.432,8.661c-2.934,5.733-5.826,11.382-8.667,16.933
															c-5.685,11.1-11.168,21.807-16.391,32.007c-2.613,5.099-5.161,10.072-7.636,14.903
															c-1.238,2.415-2.458,4.796-3.659,7.139c-0.601,1.171-1.196,2.334-1.787,3.487c-0.573,1.166-1.253,2.266-1.582,3.46
															c-0.696,2.396-0.273,5.017,0.999,7.051c0.632,1.02,1.469,1.898,2.436,2.57c0.966,0.657,2.079,1.146,3.119,1.701
															c4.208,2.16,8.247,4.232,12.103,6.21c15.407,7.921,27.876,14.332,36.507,18.77c4.297,2.222,7.636,3.949,9.913,5.126
															c1.123,0.587,1.981,1.036,2.572,1.345C347.023,303.957,347.313,304.126,347.313,304.126s-0.306-0.137-0.892-0.427
															c-0.596-0.298-1.463-0.732-2.596-1.299c-2.288-1.158-5.641-2.855-9.958-5.039
															c-8.648-4.402-21.143-10.763-36.582-18.622c-3.86-1.969-7.904-4.031-12.118-6.18c-1.045-0.556-2.137-1.026-3.17-1.722
															c-1.014-0.701-1.893-1.619-2.557-2.686c-1.336-2.127-1.786-4.872-1.06-7.389c0.353-1.274,1.044-2.387,1.607-3.542
															c0.589-1.154,1.183-2.317,1.781-3.49c1.197-2.345,2.414-4.727,3.648-7.145c2.469-4.835,5.011-9.81,7.617-14.913
															c5.215-10.204,10.689-20.916,16.364-32.021c2.839-5.552,5.728-11.202,8.66-16.937c1.466-2.867,2.943-5.755,4.43-8.662
															c0.76-1.454,1.452-2.911,2.275-4.375c0.86-1.454,2.157-2.653,3.664-3.432c2.167-1.129,4.773-1.349,7.077-0.6
															c1.167,0.372,2.18,0.985,3.225,1.499c1.042,0.533,2.08,1.064,3.116,1.594c4.143,2.12,8.24,4.217,12.281,6.285
															c8.08,4.137,15.932,8.157,23.475,12.018l0.094,0.048l0.031,0.101c5.35,17.495,10.363,33.887,14.858,48.585
															l0.026,0.085l-0.04,0.078c-11.925,23.226-21.796,42.451-28.692,55.882c-1.739,3.35-3.238,6.352-4.635,8.933
															c-1.521,2.581-3.972,3.816-5.921,4.225c-2.002,0.401-3.579,0.08-4.56-0.236c-0.498-0.156-0.858-0.316-1.093-0.438
															C347.43,304.191,347.313,304.126,347.313,304.126z"/>
													</g>
												</g>
											</g>
										</g>
									</g>
								</g>
							</g>
						</g>
					</g>
				</g>
			</g>
		</g>
		<g>
			<g>
				<g>
					<g>
						<g>
							<g>
								<g>
									<g>
										<path style="fill:#263238;" d="M359.844,208.483c-0.164,0.321-6.943-2.818-15.138-7.011
											c-8.198-4.194-14.708-7.853-14.544-8.174c0.164-0.321,6.941,2.817,15.139,7.011
											C353.496,204.502,360.008,208.162,359.844,208.483z"/>
									</g>
								</g>
							</g>
						</g>
					</g>
				</g>
			</g>
		</g>
		<g>
			<g>
				<g>
					<g>
						<g>
							<g>
								<g>
									<g>
										<path style="fill:#263238;" d="M371.785,232.421c-0.164,0.321-11.234-5.013-24.722-11.914
											c-13.493-6.903-24.294-12.757-24.13-13.078c0.165-0.321,11.232,5.012,24.724,11.915
											C361.146,226.244,371.949,232.099,371.785,232.421z"/>
									</g>
								</g>
							</g>
						</g>
					</g>
				</g>
			</g>
		</g>
		<g>
			<g>
				<g>
					<g>
						<g>
							<g>
								<g>
									<g>
										<path style="fill:#263238;" d="M370.148,246.471c-0.165,0.321-12.219-5.517-26.922-13.039
											c-14.708-7.524-26.494-13.882-26.329-14.203c0.164-0.321,12.216,5.516,26.924,13.041
											C358.523,239.791,370.312,246.15,370.148,246.471z"/>
									</g>
								</g>
							</g>
						</g>
					</g>
				</g>
			</g>
		</g>
		<g>
			<g>
				<g>
					<g>
						<g>
							<g>
								<g>
									<g>
										<path style="fill:#263238;" d="M364.452,257.603c-0.164,0.322-12.219-5.517-26.921-13.039
											c-14.708-7.524-26.494-13.882-26.33-14.203c0.164-0.321,12.217,5.516,26.924,13.041
											C352.828,250.923,364.617,257.282,364.452,257.603z"/>
									</g>
								</g>
							</g>
						</g>
					</g>
				</g>
			</g>
		</g>
		<g>
			<g>
				<g>
					<g>
						<g>
							<g>
								<g>
									<g>
										<path style="fill:#263238;" d="M358.757,268.736c-0.164,0.321-12.219-5.517-26.922-13.039
											c-14.708-7.525-26.494-13.882-26.329-14.204c0.164-0.321,12.216,5.516,26.924,13.04
											C347.133,262.056,358.921,268.415,358.757,268.736z"/>
									</g>
								</g>
							</g>
						</g>
					</g>
				</g>
			</g>
		</g>
		<g>
			<g>
				<g>
					<g>
						<g>
							<g>
								<g>
									<g>
										<path style="fill:#263238;" d="M353.062,279.869c-0.164,0.321-12.219-5.517-26.922-13.039
											c-14.708-7.524-26.493-13.882-26.329-14.203c0.164-0.321,12.216,5.516,26.924,13.04
											C341.438,273.189,353.226,279.548,353.062,279.869z"/>
									</g>
								</g>
							</g>
						</g>
					</g>
				</g>
			</g>
		</g>
		<g>
			<g>
				<g>
					<g>
						<g>
							<g>
								<g>
									<g>
										<g>
											<path style="fill:#E0E0E0;" d="M376.988,186.935l-12.786,24.993c-2.109,4.123-0.477,9.175,3.645,11.285l24.029,12.298
												L376.988,186.935z"/>
										</g>
									</g>
								</g>
							</g>
						</g>
					</g>
				</g>
			</g>
		</g>
	</g>
</g>
<g id="File">
	<g>
		<g>
			<g>
				<g>
					<g>
						<g>
							<g>
								<g>
									<g>
										<g>
											<path style="fill:#FF725E;" d="M259.049,252.415l-31.518-0.054l-2.818-5.264c-1.828-3.415-5.558-5.57-9.638-5.569
												l-30.808,0.015c-5.484,0.003-9.927,4.168-9.924,9.303l0.002,3.593l0.045,94.549c0.003,5.835,5.056,10.562,11.286,10.56
												l125.145-0.059c6.231-0.003,11.279-4.736,11.276-10.57l-0.042-89.317c-0.002-3.985-3.234-7.213-7.218-7.211
												L259.049,252.415z"/>
										</g>
									</g>
								</g>
							</g>
						</g>
					</g>
				</g>
			</g>
			<g>
				<g>
					<g>
						<rect x="214.813" y="286.959" style="fill:#FFFFFF;" width="74.479" height="31.336"/>
					</g>
				</g>
			</g>
			<g>
				<g>
					<g>
						<g>
							<path style="fill:#263238;" d="M277.822,300.76c0,0.277-11.457,0.508-25.586,0.514c-14.134,0.007-25.589-0.213-25.589-0.49
								c0-0.277,11.454-0.507,25.589-0.514C266.364,300.264,277.821,300.483,277.822,300.76z"/>
						</g>
					</g>
				</g>
			</g>
			<g>
				<g>
					<g>
						<g>
							<path style="fill:#263238;" d="M277.825,307.435c0,0.277-11.457,0.507-25.586,0.514c-14.135,0.007-25.589-0.213-25.589-0.49
								c0-0.277,11.454-0.507,25.589-0.514C266.367,306.939,277.825,307.158,277.825,307.435z"/>
						</g>
					</g>
				</g>
			</g>
		</g>
	</g>
</g>
<g id="Video_Icon">
	<g>
		<g>
			<g>
				<g>
					<g>
						<path style="fill:#FFFFFF;" d="M326.082,417.347c-8.257,10.096-23.135,11.587-33.231,3.33
							c-10.096-8.257-11.587-23.135-3.33-33.231c8.257-10.096,23.135-11.587,33.231-3.33
							C332.848,392.373,334.339,407.251,326.082,417.347z"/>
					</g>
					<g>
						<g>
							<path style="fill:#263238;" d="M326.082,417.347c-0.007-0.006,0.063-0.116,0.206-0.325c0.16-0.228,0.373-0.532,0.645-0.919
								c0.145-0.203,0.305-0.427,0.48-0.672c0.165-0.255,0.321-0.55,0.504-0.86c0.361-0.623,0.797-1.331,1.152-2.198
								c0.826-1.675,1.522-3.881,1.92-6.496c0.383-2.614,0.367-5.685-0.422-8.923c-0.794-3.218-2.314-6.645-4.871-9.616
								c-2.552-2.936-5.978-5.582-10.159-6.977c-1.024-0.404-2.116-0.626-3.208-0.891c-1.111-0.158-2.232-0.384-3.384-0.387
								c-1.148-0.096-2.307,0.01-3.478,0.067c-1.159,0.176-2.337,0.313-3.486,0.648c-2.298,0.615-4.596,1.507-6.658,2.868
								c-2.074,1.333-3.967,3.001-5.598,4.941c-1.579,1.984-2.84,4.171-3.735,6.468c-0.926,2.292-1.344,4.721-1.492,7.096
								c-0.101,1.193-0.001,2.375,0.056,3.546c0.176,1.159,0.302,2.316,0.624,3.423c0.231,1.128,0.675,2.183,1.051,3.24
								c0.477,1.018,0.911,2.044,1.51,2.968c2.198,3.822,5.472,6.655,8.855,8.573c3.42,1.916,7.08,2.726,10.392,2.865
								c3.331,0.131,6.343-0.463,8.829-1.357c2.484-0.909,4.508-2.029,5.985-3.171c0.78-0.52,1.386-1.088,1.926-1.565
								c0.267-0.241,0.526-0.452,0.743-0.664c0.206-0.22,0.394-0.421,0.564-0.604c0.325-0.343,0.581-0.612,0.773-0.814
								C325.981,417.432,326.075,417.341,326.082,417.347c0.007,0.006-0.073,0.108-0.237,0.301
								c-0.183,0.211-0.426,0.493-0.736,0.852c-0.165,0.188-0.348,0.396-0.548,0.624c-0.212,0.219-0.466,0.438-0.73,0.686
								c-0.532,0.492-1.133,1.077-1.91,1.614c-1.472,1.176-3.501,2.335-6.007,3.281c-2.508,0.932-5.557,1.56-8.941,1.452
								c-3.365-0.118-7.094-0.92-10.586-2.855c-3.456-1.937-6.804-4.813-9.06-8.707c-0.613-0.942-1.061-1.987-1.549-3.026
								c-0.387-1.078-0.841-2.155-1.081-3.306c-0.331-1.129-0.463-2.311-0.644-3.495c-0.062-1.196-0.164-2.404-0.064-3.623
								c0.146-2.427,0.573-4.911,1.517-7.255c0.914-2.349,2.202-4.586,3.816-6.613c1.666-1.983,3.603-3.688,5.724-5.049
								c2.109-1.389,4.459-2.301,6.808-2.925c1.175-0.34,2.379-0.479,3.563-0.656c1.196-0.058,2.38-0.162,3.552-0.062
								c1.176,0.007,2.321,0.238,3.454,0.404c1.115,0.272,2.228,0.504,3.273,0.918c4.264,1.439,7.746,4.149,10.33,7.152
								c2.59,3.039,4.115,6.535,4.899,9.809c0.778,3.295,0.767,6.409,0.352,9.051c-0.43,2.643-1.164,4.863-2.024,6.539
								c-0.372,0.868-0.826,1.573-1.203,2.192c-0.191,0.308-0.355,0.6-0.528,0.852c-0.184,0.241-0.351,0.462-0.503,0.661
								c-0.29,0.375-0.518,0.67-0.689,0.891C326.172,417.254,326.089,417.353,326.082,417.347z"/>
						</g>
					</g>
				</g>
			</g>
			<g>
				<g>
					<path style="fill:#E0E0E0;" d="M322.624,405.753c0.736,0.735,0.4,1.991-0.604,2.261l-11.848,3.617l-11.879,3.192
						c-1.036-0.155-1.956-1.074-1.687-2.078l3.175-11.884l3.175-11.884c0.268-1.005,1.524-1.342,2.26-0.607l8.704,8.691
						L322.624,405.753z"/>
				</g>
			</g>
		</g>
	</g>
</g>
<g id="Person_Icon_1">
	<g>
		<g>
			<g>
				<g>
					<g>
						<g>
							<path style="fill:#FF725E;" d="M190.194,401.138c4.05-2.451,6.462-7.359,5.71-12.611c-0.99-6.878-7.02-11.706-13.472-10.781
								c-6.448,0.924-10.876,7.25-9.886,14.128c0.762,5.3,4.523,9.349,9.158,10.52c-17.56,5.365-13.856,24.765-13.856,24.765
								l42.502-6.093C210.35,421.067,208.396,401.19,190.194,401.138z"/>
						</g>
					</g>
				</g>
			</g>
		</g>
	</g>
</g>
<g id="Mail">
	<g>
		<g>
			<g>
				<g>
					<g>
						<path style="fill:#EBEBEB;" d="M138.144,375.456l-76.763,15.643c-2.276,0.464-4.497-1.005-4.961-3.281l-9.996-49.054
							c-0.464-2.276,1.005-4.497,3.281-4.961l76.763-15.643c2.276-0.464,4.497,1.005,4.961,3.281l9.996,49.054
							C141.889,372.771,140.42,374.992,138.144,375.456z"/>
					</g>
					<g>
						<g>
							<path style="fill:#263238;" d="M138.144,375.456c-0.006-0.022,0.245-0.05,0.689-0.236c0.439-0.181,1.092-0.53,1.685-1.257
								c0.574-0.714,1.081-1.866,0.866-3.222c-0.279-1.352-0.6-2.909-0.962-4.659c-1.453-7.034-3.551-17.183-6.141-29.721
								c-0.645-3.138-1.321-6.425-2.024-9.85c-0.354-1.709-0.716-3.452-1.084-5.227c-0.398-1.697-2.068-3.018-3.874-2.992
								c-0.872,0.033-1.829,0.322-2.76,0.486c-0.938,0.192-1.884,0.386-2.837,0.582c-1.907,0.391-3.844,0.788-5.809,1.19
								c-3.932,0.805-7.978,1.633-12.127,2.482c-16.6,3.389-34.848,7.115-54.002,11.025c-1.13,0.224-2.127,0.969-2.676,1.97
								c-0.28,0.497-0.437,1.059-0.476,1.624c-0.048,0.569,0.076,1.12,0.202,1.724c0.482,2.366,0.96,4.715,1.435,7.048
								c0.949,4.666,1.885,9.263,2.804,13.78c1.836,9.035,3.606,17.75,5.293,26.053l0.317,1.549c0.099,0.487,0.298,0.95,0.57,1.361
								c0.543,0.824,1.401,1.425,2.346,1.66c0.472,0.119,0.964,0.149,1.444,0.091c0.472-0.063,0.994-0.193,1.486-0.285
								c0.998-0.202,1.988-0.403,2.971-0.602c3.933-0.797,7.752-1.571,11.444-2.319c7.383-1.493,14.262-2.884,20.543-4.154
								c12.552-2.522,22.712-4.564,29.753-5.979c3.504-0.692,6.227-1.231,8.094-1.6c0.915-0.175,1.617-0.309,2.108-0.403
								C137.898,375.488,138.144,375.456,138.144,375.456s-0.239,0.067-0.711,0.172c-0.488,0.106-1.187,0.257-2.097,0.454
								c-1.863,0.391-4.58,0.962-8.075,1.695c-7.033,1.453-17.182,3.55-29.72,6.141c-6.277,1.289-13.151,2.701-20.53,4.216
								c-3.691,0.756-7.507,1.539-11.439,2.344c-0.983,0.201-1.973,0.404-2.97,0.608c-0.508,0.096-0.978,0.218-1.522,0.294
								c-0.536,0.066-1.087,0.034-1.615-0.099c-1.058-0.261-2.017-0.93-2.627-1.853c-0.305-0.46-0.529-0.979-0.641-1.523
								l-0.32-1.553c-1.696-8.301-3.477-17.014-5.323-26.047c-0.922-4.517-1.86-9.114-2.812-13.779
								c-0.476-2.333-0.955-4.682-1.437-7.048c-0.12-0.574-0.266-1.219-0.211-1.864c0.044-0.641,0.223-1.276,0.539-1.839
								c0.619-1.132,1.752-1.978,3.028-2.23c19.157-3.896,37.407-7.608,54.01-10.985c4.151-0.842,8.198-1.663,12.131-2.461
								c1.966-0.398,3.904-0.791,5.812-1.178c0.954-0.193,1.9-0.385,2.839-0.575c0.469-0.095,0.937-0.19,1.402-0.284
								c0.456-0.09,0.945-0.206,1.444-0.204c2.004-0.025,3.843,1.444,4.279,3.319c0.365,1.784,0.723,3.535,1.074,5.251
								c0.692,3.427,1.357,6.717,1.992,9.857c2.522,12.552,4.564,22.713,5.979,29.755c0.345,1.76,0.671,3.312,0.916,4.677
								c0.206,1.41-0.337,2.59-0.938,3.311c-0.622,0.734-1.296,1.073-1.747,1.24C138.397,375.441,138.144,375.456,138.144,375.456z"
								/>
						</g>
					</g>
				</g>
			</g>
		</g>
		<g>
			<g>
				<polyline style="fill:#EBEBEB;" points="46.479,336.864 95.702,360.619 127.673,318.092 				"/>
			</g>
			<g>
				<g>
					<path style="fill:#263238;" d="M127.673,318.092c0.007,0.005-0.042,0.085-0.144,0.235c-0.121,0.172-0.273,0.389-0.463,0.658
						c-0.439,0.603-1.047,1.44-1.82,2.501c-1.623,2.191-3.931,5.309-6.776,9.15c-5.785,7.728-13.746,18.363-22.562,30.14
						l-0.128,0.171l-0.193-0.093c-0.205-0.099-0.428-0.206-0.651-0.314c-13.387-6.493-25.502-12.37-34.314-16.645
						c-4.353-2.139-7.887-3.876-10.372-5.098c-1.192-0.598-2.132-1.07-2.809-1.41c-0.296-0.155-0.535-0.279-0.725-0.379
						c-0.162-0.088-0.243-0.137-0.239-0.145c0.004-0.008,0.093,0.025,0.262,0.097c0.196,0.087,0.441,0.196,0.747,0.332
						c0.687,0.319,1.64,0.761,2.851,1.322c2.502,1.186,6.061,2.872,10.444,4.949c8.829,4.239,20.968,10.068,34.38,16.507
						c0.223,0.108,0.445,0.215,0.651,0.314l-0.321,0.078c8.864-11.741,16.869-22.342,22.686-30.047c2.9-3.8,5.253-6.883,6.907-9.051
						c0.806-1.037,1.44-1.854,1.897-2.443c0.206-0.257,0.372-0.463,0.504-0.627C127.603,318.155,127.666,318.087,127.673,318.092z"
						/>
				</g>
			</g>
		</g>
		<g>
			<g>
				<path style="fill:#263238;" d="M77.586,352.072c0.129,0.064-4.043,8.751-9.316,19.4c-5.276,10.653-9.655,19.234-9.784,19.171
					c-0.129-0.064,4.042-8.749,9.317-19.402C73.077,360.591,77.457,352.008,77.586,352.072z"/>
			</g>
		</g>
		<g>
			<g>
				<path style="fill:#263238;" d="M105.929,347.016c0.086-0.115,8.122,5.764,17.947,13.129
					c9.828,7.368,17.723,13.432,17.636,13.547c-0.086,0.115-8.121-5.763-17.949-13.131
					C113.739,353.196,105.842,347.131,105.929,347.016z"/>
			</g>
		</g>
	</g>
</g>
</svg>
